<mxfile host="app.diagrams.net" agent="Mozilla/5.0 (X11; Linux x86_64) AppleWebKit/537.36 (KHTML, like Gecko) Chrome/130.0.0.0 Safari/537.36" version="24.8.4">
  <diagram name="Page-1" id="52a04d89-c75d-2922-d76d-85b35f80e030">
    <mxGraphModel dx="1572" dy="689" grid="0" gridSize="10" guides="1" tooltips="1" connect="1" arrows="1" fold="1" page="1" pageScale="1" pageWidth="1100" pageHeight="850" background="none" math="0" shadow="0">
      <root>
        <mxCell id="0" />
        <mxCell id="1" parent="0" />
        <mxCell id="17472293e6e8944d-29" value="Admin" style="whiteSpace=wrap;html=1;rounded=0;shadow=0;comic=0;labelBackgroundColor=none;strokeWidth=1;fontFamily=Verdana;fontSize=12;align=center;" parent="1" vertex="1">
          <mxGeometry x="728" y="87" width="120" height="50" as="geometry" />
        </mxCell>
        <mxCell id="1fdf3b25b50cf41e-27" style="edgeStyle=none;html=1;labelBackgroundColor=none;startFill=0;startSize=8;endFill=1;endSize=8;fontFamily=Verdana;fontSize=12;" parent="1" source="17472293e6e8944d-30" target="1fdf3b25b50cf41e-1" edge="1">
          <mxGeometry relative="1" as="geometry" />
        </mxCell>
        <mxCell id="WtRjEL5a1TLRnZF8yTDm-4" value="place order" style="edgeLabel;html=1;align=center;verticalAlign=middle;resizable=0;points=[];" parent="1fdf3b25b50cf41e-27" vertex="1" connectable="0">
          <mxGeometry x="-0.2135" y="2" relative="1" as="geometry">
            <mxPoint as="offset" />
          </mxGeometry>
        </mxCell>
        <mxCell id="17472293e6e8944d-30" value="user" style="whiteSpace=wrap;html=1;rounded=0;shadow=0;comic=0;labelBackgroundColor=none;strokeWidth=1;fontFamily=Verdana;fontSize=12;align=center;" parent="1" vertex="1">
          <mxGeometry x="138" y="84" width="120" height="50" as="geometry" />
        </mxCell>
        <mxCell id="1fdf3b25b50cf41e-28" style="edgeStyle=none;html=1;labelBackgroundColor=none;startFill=0;startSize=8;endFill=1;endSize=8;fontFamily=Verdana;fontSize=12;" parent="1" edge="1">
          <mxGeometry relative="1" as="geometry">
            <mxPoint x="579" y="110.49999999999989" as="sourcePoint" />
            <mxPoint x="729" y="111.57142857142856" as="targetPoint" />
          </mxGeometry>
        </mxCell>
        <mxCell id="WtRjEL5a1TLRnZF8yTDm-11" value="customer info" style="edgeLabel;html=1;align=center;verticalAlign=middle;resizable=0;points=[];" parent="1fdf3b25b50cf41e-28" vertex="1" connectable="0">
          <mxGeometry x="-0.3674" y="1" relative="1" as="geometry">
            <mxPoint as="offset" />
          </mxGeometry>
        </mxCell>
        <mxCell id="1fdf3b25b50cf41e-29" style="edgeStyle=none;html=1;labelBackgroundColor=none;startFill=0;startSize=8;endFill=1;endSize=8;fontFamily=Verdana;fontSize=12;entryX=0.653;entryY=0.02;entryDx=0;entryDy=0;exitX=0.691;exitY=1.109;exitDx=0;exitDy=0;exitPerimeter=0;entryPerimeter=0;" parent="1" source="1fdf3b25b50cf41e-2" target="Nx4FLfZ7HG3fZNsCcpe--1" edge="1">
          <mxGeometry relative="1" as="geometry">
            <mxPoint x="508" y="184" as="targetPoint" />
          </mxGeometry>
        </mxCell>
        <mxCell id="WtRjEL5a1TLRnZF8yTDm-7" value="payment details" style="edgeLabel;html=1;align=center;verticalAlign=middle;resizable=0;points=[];" parent="1fdf3b25b50cf41e-29" vertex="1" connectable="0">
          <mxGeometry x="-0.4921" y="4" relative="1" as="geometry">
            <mxPoint as="offset" />
          </mxGeometry>
        </mxCell>
        <mxCell id="1fdf3b25b50cf41e-1" value="0" style="swimlane;html=1;fontStyle=0;childLayout=stackLayout;horizontal=1;startSize=26;fillColor=#e0e0e0;horizontalStack=0;resizeParent=1;resizeLast=0;collapsible=1;marginBottom=0;swimlaneFillColor=#ffffff;align=center;rounded=1;shadow=0;comic=0;labelBackgroundColor=none;strokeWidth=1;fontFamily=Verdana;fontSize=12" parent="1" vertex="1">
          <mxGeometry x="438" y="84" width="140" height="52" as="geometry" />
        </mxCell>
        <mxCell id="1fdf3b25b50cf41e-2" value="online shopping system" style="text;html=1;strokeColor=none;fillColor=none;spacingLeft=4;spacingRight=4;whiteSpace=wrap;overflow=hidden;rotatable=0;points=[[0,0.5],[1,0.5]];portConstraint=eastwest;align=center;" parent="1fdf3b25b50cf41e-1" vertex="1">
          <mxGeometry y="26" width="140" height="26" as="geometry" />
        </mxCell>
        <mxCell id="Nx4FLfZ7HG3fZNsCcpe--1" value="Payment Gateway" style="whiteSpace=wrap;html=1;rounded=0;shadow=0;comic=0;labelBackgroundColor=none;strokeWidth=1;fontFamily=Verdana;fontSize=12;align=center;" parent="1" vertex="1">
          <mxGeometry x="413" y="220" width="190" height="50" as="geometry" />
        </mxCell>
        <mxCell id="Nx4FLfZ7HG3fZNsCcpe--11" value="" style="endArrow=classic;html=1;rounded=0;exitX=0;exitY=0.75;exitDx=0;exitDy=0;entryX=1;entryY=0.5;entryDx=0;entryDy=0;" parent="1" source="17472293e6e8944d-29" target="1fdf3b25b50cf41e-2" edge="1">
          <mxGeometry width="50" height="50" relative="1" as="geometry">
            <mxPoint x="568" y="360" as="sourcePoint" />
            <mxPoint x="618" y="310" as="targetPoint" />
          </mxGeometry>
        </mxCell>
        <mxCell id="WtRjEL5a1TLRnZF8yTDm-9" value="order status&amp;nbsp;" style="edgeLabel;html=1;align=center;verticalAlign=middle;resizable=0;points=[];" parent="Nx4FLfZ7HG3fZNsCcpe--11" vertex="1" connectable="0">
          <mxGeometry x="-0.0901" y="-1" relative="1" as="geometry">
            <mxPoint as="offset" />
          </mxGeometry>
        </mxCell>
        <mxCell id="Nx4FLfZ7HG3fZNsCcpe--13" value="" style="endArrow=classic;html=1;rounded=0;exitX=0;exitY=0.5;exitDx=0;exitDy=0;entryX=1;entryY=0.75;entryDx=0;entryDy=0;" parent="1" source="1fdf3b25b50cf41e-2" target="17472293e6e8944d-30" edge="1">
          <mxGeometry width="50" height="50" relative="1" as="geometry">
            <mxPoint x="434" y="134" as="sourcePoint" />
            <mxPoint x="284" y="132" as="targetPoint" />
          </mxGeometry>
        </mxCell>
        <mxCell id="WtRjEL5a1TLRnZF8yTDm-5" value="order details" style="edgeLabel;html=1;align=center;verticalAlign=middle;resizable=0;points=[];" parent="Nx4FLfZ7HG3fZNsCcpe--13" vertex="1" connectable="0">
          <mxGeometry x="0.0988" y="2" relative="1" as="geometry">
            <mxPoint as="offset" />
          </mxGeometry>
        </mxCell>
        <mxCell id="Nx4FLfZ7HG3fZNsCcpe--17" value="" style="endArrow=classic;html=1;rounded=0;exitX=0.247;exitY=0.039;exitDx=0;exitDy=0;exitPerimeter=0;entryX=0.15;entryY=1.038;entryDx=0;entryDy=0;entryPerimeter=0;" parent="1" source="Nx4FLfZ7HG3fZNsCcpe--1" target="1fdf3b25b50cf41e-2" edge="1">
          <mxGeometry width="50" height="50" relative="1" as="geometry">
            <mxPoint x="438" y="184" as="sourcePoint" />
            <mxPoint x="478" y="140" as="targetPoint" />
          </mxGeometry>
        </mxCell>
        <mxCell id="WtRjEL5a1TLRnZF8yTDm-6" value="transaction statue" style="edgeLabel;html=1;align=center;verticalAlign=middle;resizable=0;points=[];" parent="Nx4FLfZ7HG3fZNsCcpe--17" vertex="1" connectable="0">
          <mxGeometry x="-0.0447" y="-2" relative="1" as="geometry">
            <mxPoint as="offset" />
          </mxGeometry>
        </mxCell>
        <mxCell id="Nx4FLfZ7HG3fZNsCcpe--20" value="&lt;b&gt;&lt;font style=&quot;font-size: 18px;&quot;&gt;Context Diagram&lt;/font&gt;&lt;/b&gt;" style="text;html=1;align=center;verticalAlign=middle;whiteSpace=wrap;rounded=0;" parent="1" vertex="1">
          <mxGeometry x="426" y="39" width="168" height="30" as="geometry" />
        </mxCell>
        <mxCell id="Nx4FLfZ7HG3fZNsCcpe--21" value="&lt;font style=&quot;font-size: 16px;&quot;&gt;&lt;b&gt;Level-0 DFD&lt;/b&gt;&lt;/font&gt;" style="text;html=1;align=center;verticalAlign=middle;whiteSpace=wrap;rounded=0;" parent="1" vertex="1">
          <mxGeometry x="430" y="367" width="140" height="30" as="geometry" />
        </mxCell>
        <mxCell id="Nx4FLfZ7HG3fZNsCcpe--22" value="1.0" style="swimlane;html=1;fontStyle=0;childLayout=stackLayout;horizontal=1;startSize=26;fillColor=#e0e0e0;horizontalStack=0;resizeParent=1;resizeLast=0;collapsible=1;marginBottom=0;swimlaneFillColor=#ffffff;align=center;rounded=1;shadow=0;comic=0;labelBackgroundColor=none;strokeWidth=1;fontFamily=Verdana;fontSize=12" parent="1" vertex="1">
          <mxGeometry x="430" y="411" width="140" height="52" as="geometry" />
        </mxCell>
        <mxCell id="Nx4FLfZ7HG3fZNsCcpe--23" value="manage user" style="text;html=1;strokeColor=none;fillColor=none;spacingLeft=4;spacingRight=4;whiteSpace=wrap;overflow=hidden;rotatable=0;points=[[0,0.5],[1,0.5]];portConstraint=eastwest;align=center;" parent="Nx4FLfZ7HG3fZNsCcpe--22" vertex="1">
          <mxGeometry y="26" width="140" height="26" as="geometry" />
        </mxCell>
        <mxCell id="Nx4FLfZ7HG3fZNsCcpe--24" value="2.0" style="swimlane;html=1;fontStyle=0;childLayout=stackLayout;horizontal=1;startSize=26;fillColor=#e0e0e0;horizontalStack=0;resizeParent=1;resizeLast=0;collapsible=1;marginBottom=0;swimlaneFillColor=#ffffff;align=center;rounded=1;shadow=0;comic=0;labelBackgroundColor=none;strokeWidth=1;fontFamily=Verdana;fontSize=12" parent="1" vertex="1">
          <mxGeometry x="430" y="561" width="140" height="52" as="geometry" />
        </mxCell>
        <mxCell id="Nx4FLfZ7HG3fZNsCcpe--25" value="manage orders" style="text;html=1;strokeColor=none;fillColor=none;spacingLeft=4;spacingRight=4;whiteSpace=wrap;overflow=hidden;rotatable=0;points=[[0,0.5],[1,0.5]];portConstraint=eastwest;align=center;" parent="Nx4FLfZ7HG3fZNsCcpe--24" vertex="1">
          <mxGeometry y="26" width="140" height="26" as="geometry" />
        </mxCell>
        <mxCell id="Nx4FLfZ7HG3fZNsCcpe--26" value="3.0" style="swimlane;html=1;fontStyle=0;childLayout=stackLayout;horizontal=1;startSize=26;fillColor=#e0e0e0;horizontalStack=0;resizeParent=1;resizeLast=0;collapsible=1;marginBottom=0;swimlaneFillColor=#ffffff;align=center;rounded=1;shadow=0;comic=0;labelBackgroundColor=none;strokeWidth=1;fontFamily=Verdana;fontSize=12" parent="1" vertex="1">
          <mxGeometry x="430" y="731" width="140" height="52" as="geometry" />
        </mxCell>
        <mxCell id="Nx4FLfZ7HG3fZNsCcpe--27" value="manage products" style="text;html=1;strokeColor=none;fillColor=none;spacingLeft=4;spacingRight=4;whiteSpace=wrap;overflow=hidden;rotatable=0;points=[[0,0.5],[1,0.5]];portConstraint=eastwest;align=center;" parent="Nx4FLfZ7HG3fZNsCcpe--26" vertex="1">
          <mxGeometry y="26" width="140" height="26" as="geometry" />
        </mxCell>
        <mxCell id="Nx4FLfZ7HG3fZNsCcpe--103" style="edgeStyle=orthogonalEdgeStyle;rounded=0;orthogonalLoop=1;jettySize=auto;html=1;exitX=0;exitY=0.25;exitDx=0;exitDy=0;entryX=0;entryY=0.5;entryDx=0;entryDy=0;" parent="1" source="Nx4FLfZ7HG3fZNsCcpe--29" target="Nx4FLfZ7HG3fZNsCcpe--62" edge="1">
          <mxGeometry relative="1" as="geometry">
            <Array as="points">
              <mxPoint x="430" y="920" />
              <mxPoint x="80" y="920" />
              <mxPoint x="80" y="505" />
            </Array>
          </mxGeometry>
        </mxCell>
        <mxCell id="WtRjEL5a1TLRnZF8yTDm-35" value="enter payment details" style="edgeLabel;html=1;align=center;verticalAlign=middle;resizable=0;points=[];" parent="Nx4FLfZ7HG3fZNsCcpe--103" vertex="1" connectable="0">
          <mxGeometry x="-0.4569" relative="1" as="geometry">
            <mxPoint as="offset" />
          </mxGeometry>
        </mxCell>
        <mxCell id="Nx4FLfZ7HG3fZNsCcpe--29" value="4.0" style="swimlane;html=1;fontStyle=0;childLayout=stackLayout;horizontal=1;startSize=26;fillColor=#e0e0e0;horizontalStack=0;resizeParent=1;resizeLast=0;collapsible=1;marginBottom=0;swimlaneFillColor=#ffffff;align=center;rounded=1;shadow=0;comic=0;labelBackgroundColor=none;strokeWidth=1;fontFamily=Verdana;fontSize=12" parent="1" vertex="1">
          <mxGeometry x="430" y="861" width="140" height="52" as="geometry" />
        </mxCell>
        <mxCell id="Nx4FLfZ7HG3fZNsCcpe--30" value="process payment&amp;nbsp;" style="text;html=1;strokeColor=none;fillColor=none;spacingLeft=4;spacingRight=4;whiteSpace=wrap;overflow=hidden;rotatable=0;points=[[0,0.5],[1,0.5]];portConstraint=eastwest;align=center;" parent="Nx4FLfZ7HG3fZNsCcpe--29" vertex="1">
          <mxGeometry y="26" width="140" height="26" as="geometry" />
        </mxCell>
        <mxCell id="Nx4FLfZ7HG3fZNsCcpe--143" style="edgeStyle=orthogonalEdgeStyle;rounded=0;orthogonalLoop=1;jettySize=auto;html=1;exitX=0;exitY=0.25;exitDx=0;exitDy=0;entryX=0;entryY=0.25;entryDx=0;entryDy=0;" parent="1" source="Nx4FLfZ7HG3fZNsCcpe--31" target="Nx4FLfZ7HG3fZNsCcpe--51" edge="1">
          <mxGeometry relative="1" as="geometry">
            <mxPoint x="30" y="610" as="targetPoint" />
            <Array as="points">
              <mxPoint x="30" y="1004" />
              <mxPoint x="30" y="663" />
            </Array>
          </mxGeometry>
        </mxCell>
        <mxCell id="WtRjEL5a1TLRnZF8yTDm-30" value="access inventory management&amp;nbsp;" style="edgeLabel;html=1;align=center;verticalAlign=middle;resizable=0;points=[];" parent="Nx4FLfZ7HG3fZNsCcpe--143" vertex="1" connectable="0">
          <mxGeometry x="-0.5173" y="-1" relative="1" as="geometry">
            <mxPoint x="31" y="-1" as="offset" />
          </mxGeometry>
        </mxCell>
        <mxCell id="Nx4FLfZ7HG3fZNsCcpe--31" value="5.0" style="swimlane;html=1;fontStyle=0;childLayout=stackLayout;horizontal=1;startSize=26;fillColor=#e0e0e0;horizontalStack=0;resizeParent=1;resizeLast=0;collapsible=1;marginBottom=0;swimlaneFillColor=#ffffff;align=center;rounded=1;shadow=0;comic=0;labelBackgroundColor=none;strokeWidth=1;fontFamily=Verdana;fontSize=12" parent="1" vertex="1">
          <mxGeometry x="430" y="991" width="140" height="52" as="geometry" />
        </mxCell>
        <mxCell id="Nx4FLfZ7HG3fZNsCcpe--32" value="manage inventory" style="text;html=1;strokeColor=none;fillColor=none;spacingLeft=4;spacingRight=4;whiteSpace=wrap;overflow=hidden;rotatable=0;points=[[0,0.5],[1,0.5]];portConstraint=eastwest;align=center;" parent="Nx4FLfZ7HG3fZNsCcpe--31" vertex="1">
          <mxGeometry y="26" width="140" height="26" as="geometry" />
        </mxCell>
        <mxCell id="Nx4FLfZ7HG3fZNsCcpe--35" value="D1" style="html=1;dashed=0;whiteSpace=wrap;shape=mxgraph.dfd.dataStoreID;align=left;spacingLeft=3;points=[[0,0],[0.5,0],[1,0],[0,0.5],[1,0.5],[0,1],[0.5,1],[1,1]];" parent="1" vertex="1">
          <mxGeometry x="813" y="433" width="100" height="30" as="geometry" />
        </mxCell>
        <mxCell id="Nx4FLfZ7HG3fZNsCcpe--38" value="User DB" style="text;html=1;align=center;verticalAlign=middle;whiteSpace=wrap;rounded=0;" parent="1" vertex="1">
          <mxGeometry x="843" y="433" width="60" height="30" as="geometry" />
        </mxCell>
        <mxCell id="Nx4FLfZ7HG3fZNsCcpe--142" style="edgeStyle=orthogonalEdgeStyle;rounded=0;orthogonalLoop=1;jettySize=auto;html=1;exitX=0;exitY=0.5;exitDx=0;exitDy=0;entryX=0;entryY=0.5;entryDx=0;entryDy=0;" parent="1" source="Nx4FLfZ7HG3fZNsCcpe--51" target="Nx4FLfZ7HG3fZNsCcpe--32" edge="1">
          <mxGeometry relative="1" as="geometry" />
        </mxCell>
        <mxCell id="WtRjEL5a1TLRnZF8yTDm-29" value="sending feedback" style="edgeLabel;html=1;align=center;verticalAlign=middle;resizable=0;points=[];" parent="Nx4FLfZ7HG3fZNsCcpe--142" vertex="1" connectable="0">
          <mxGeometry x="0.4423" relative="1" as="geometry">
            <mxPoint x="36" as="offset" />
          </mxGeometry>
        </mxCell>
        <mxCell id="Nx4FLfZ7HG3fZNsCcpe--51" value="Admin" style="whiteSpace=wrap;html=1;rounded=0;shadow=0;comic=0;labelBackgroundColor=none;strokeWidth=1;fontFamily=Verdana;fontSize=12;align=center;" parent="1" vertex="1">
          <mxGeometry x="140" y="650" width="120" height="50" as="geometry" />
        </mxCell>
        <mxCell id="Nx4FLfZ7HG3fZNsCcpe--62" value="User" style="whiteSpace=wrap;html=1;rounded=0;shadow=0;comic=0;labelBackgroundColor=none;strokeWidth=1;fontFamily=Verdana;fontSize=12;align=center;" parent="1" vertex="1">
          <mxGeometry x="140" y="480" width="120" height="50" as="geometry" />
        </mxCell>
        <mxCell id="Nx4FLfZ7HG3fZNsCcpe--112" style="edgeStyle=orthogonalEdgeStyle;rounded=0;orthogonalLoop=1;jettySize=auto;html=1;exitX=0.75;exitY=0;exitDx=0;exitDy=0;entryX=0.25;entryY=0;entryDx=0;entryDy=0;" parent="1" source="Nx4FLfZ7HG3fZNsCcpe--63" target="Nx4FLfZ7HG3fZNsCcpe--29" edge="1">
          <mxGeometry relative="1" as="geometry" />
        </mxCell>
        <mxCell id="WtRjEL5a1TLRnZF8yTDm-38" value="receiving payment confirmation" style="edgeLabel;html=1;align=center;verticalAlign=middle;resizable=0;points=[];" parent="Nx4FLfZ7HG3fZNsCcpe--112" vertex="1" connectable="0">
          <mxGeometry x="-0.6078" y="2" relative="1" as="geometry">
            <mxPoint x="70" y="1" as="offset" />
          </mxGeometry>
        </mxCell>
        <mxCell id="Nx4FLfZ7HG3fZNsCcpe--63" value="Payment Gateway" style="whiteSpace=wrap;html=1;rounded=0;shadow=0;comic=0;labelBackgroundColor=none;strokeWidth=1;fontFamily=Verdana;fontSize=12;align=center;" parent="1" vertex="1">
          <mxGeometry x="130" y="840" width="120" height="50" as="geometry" />
        </mxCell>
        <mxCell id="Nx4FLfZ7HG3fZNsCcpe--66" value="D2" style="html=1;dashed=0;whiteSpace=wrap;shape=mxgraph.dfd.dataStoreID;align=left;spacingLeft=3;points=[[0,0],[0.5,0],[1,0],[0,0.5],[1,0.5],[0,1],[0.5,1],[1,1]];" parent="1" vertex="1">
          <mxGeometry x="813" y="583" width="100" height="30" as="geometry" />
        </mxCell>
        <mxCell id="Nx4FLfZ7HG3fZNsCcpe--67" value="Current&lt;div&gt;Orders&lt;/div&gt;" style="text;html=1;align=center;verticalAlign=middle;whiteSpace=wrap;rounded=0;" parent="1" vertex="1">
          <mxGeometry x="843" y="583" width="60" height="30" as="geometry" />
        </mxCell>
        <mxCell id="Nx4FLfZ7HG3fZNsCcpe--68" value="D3" style="html=1;dashed=0;whiteSpace=wrap;shape=mxgraph.dfd.dataStoreID;align=left;spacingLeft=3;points=[[0,0],[0.5,0],[1,0],[0,0.5],[1,0.5],[0,1],[0.5,1],[1,1]];" parent="1" vertex="1">
          <mxGeometry x="813" y="742" width="100" height="30" as="geometry" />
        </mxCell>
        <mxCell id="Nx4FLfZ7HG3fZNsCcpe--69" value="Product List" style="text;html=1;align=center;verticalAlign=middle;whiteSpace=wrap;rounded=0;" parent="1" vertex="1">
          <mxGeometry x="843" y="742" width="60" height="30" as="geometry" />
        </mxCell>
        <mxCell id="Nx4FLfZ7HG3fZNsCcpe--71" value="D4" style="html=1;dashed=0;whiteSpace=wrap;shape=mxgraph.dfd.dataStoreID;align=left;spacingLeft=3;points=[[0,0],[0.5,0],[1,0],[0,0.5],[1,0.5],[0,1],[0.5,1],[1,1]];" parent="1" vertex="1">
          <mxGeometry x="813" y="872" width="100" height="30" as="geometry" />
        </mxCell>
        <mxCell id="Nx4FLfZ7HG3fZNsCcpe--72" value="Order History" style="text;html=1;align=center;verticalAlign=middle;whiteSpace=wrap;rounded=0;" parent="1" vertex="1">
          <mxGeometry x="843" y="872" width="60" height="30" as="geometry" />
        </mxCell>
        <mxCell id="Nx4FLfZ7HG3fZNsCcpe--73" value="D5" style="html=1;dashed=0;whiteSpace=wrap;shape=mxgraph.dfd.dataStoreID;align=left;spacingLeft=3;points=[[0,0],[0.5,0],[1,0],[0,0.5],[1,0.5],[0,1],[0.5,1],[1,1]];" parent="1" vertex="1">
          <mxGeometry x="813" y="1002" width="100" height="30" as="geometry" />
        </mxCell>
        <mxCell id="Nx4FLfZ7HG3fZNsCcpe--74" value="Inventory" style="text;html=1;align=center;verticalAlign=middle;whiteSpace=wrap;rounded=0;" parent="1" vertex="1">
          <mxGeometry x="843" y="1002" width="60" height="30" as="geometry" />
        </mxCell>
        <mxCell id="Nx4FLfZ7HG3fZNsCcpe--78" value="" style="endArrow=classic;html=1;rounded=0;exitX=1;exitY=0.25;exitDx=0;exitDy=0;entryX=-0.004;entryY=-0.041;entryDx=0;entryDy=0;entryPerimeter=0;" parent="1" source="Nx4FLfZ7HG3fZNsCcpe--62" target="Nx4FLfZ7HG3fZNsCcpe--23" edge="1">
          <mxGeometry width="50" height="50" relative="1" as="geometry">
            <mxPoint x="230" y="663" as="sourcePoint" />
            <mxPoint x="350" y="470" as="targetPoint" />
          </mxGeometry>
        </mxCell>
        <mxCell id="WtRjEL5a1TLRnZF8yTDm-18" value="submit credentiald" style="edgeLabel;html=1;align=center;verticalAlign=middle;resizable=0;points=[];rotation=-20;" parent="Nx4FLfZ7HG3fZNsCcpe--78" vertex="1" connectable="0">
          <mxGeometry x="-0.2753" y="1" relative="1" as="geometry">
            <mxPoint x="19" y="-8" as="offset" />
          </mxGeometry>
        </mxCell>
        <mxCell id="Nx4FLfZ7HG3fZNsCcpe--80" value="" style="endArrow=classic;html=1;rounded=0;exitX=1;exitY=0.25;exitDx=0;exitDy=0;entryX=-0.007;entryY=0.115;entryDx=0;entryDy=0;entryPerimeter=0;edgeStyle=orthogonalEdgeStyle;" parent="1" source="Nx4FLfZ7HG3fZNsCcpe--22" target="Nx4FLfZ7HG3fZNsCcpe--35" edge="1">
          <mxGeometry width="50" height="50" relative="1" as="geometry">
            <mxPoint x="480" y="830" as="sourcePoint" />
            <mxPoint x="530" y="780" as="targetPoint" />
          </mxGeometry>
        </mxCell>
        <mxCell id="WtRjEL5a1TLRnZF8yTDm-14" value="update data" style="edgeLabel;html=1;align=center;verticalAlign=middle;resizable=0;points=[];" parent="Nx4FLfZ7HG3fZNsCcpe--80" vertex="1" connectable="0">
          <mxGeometry x="-0.2381" relative="1" as="geometry">
            <mxPoint x="-26" y="-1" as="offset" />
          </mxGeometry>
        </mxCell>
        <mxCell id="Nx4FLfZ7HG3fZNsCcpe--83" value="" style="endArrow=classic;html=1;rounded=0;exitX=-0.018;exitY=0.729;exitDx=0;exitDy=0;entryX=1;entryY=0.5;entryDx=0;entryDy=0;exitPerimeter=0;edgeStyle=orthogonalEdgeStyle;" parent="1" source="Nx4FLfZ7HG3fZNsCcpe--35" target="Nx4FLfZ7HG3fZNsCcpe--23" edge="1">
          <mxGeometry width="50" height="50" relative="1" as="geometry">
            <mxPoint x="480" y="830" as="sourcePoint" />
            <mxPoint x="530" y="780" as="targetPoint" />
            <Array as="points">
              <mxPoint x="680" y="455" />
              <mxPoint x="680" y="450" />
            </Array>
          </mxGeometry>
        </mxCell>
        <mxCell id="WtRjEL5a1TLRnZF8yTDm-16" value="system confirms and respond" style="edgeLabel;html=1;align=center;verticalAlign=middle;resizable=0;points=[];" parent="Nx4FLfZ7HG3fZNsCcpe--83" vertex="1" connectable="0">
          <mxGeometry x="0.6701" relative="1" as="geometry">
            <mxPoint x="80" y="3" as="offset" />
          </mxGeometry>
        </mxCell>
        <mxCell id="Nx4FLfZ7HG3fZNsCcpe--85" value="" style="endArrow=classic;html=1;rounded=0;exitX=0;exitY=0.25;exitDx=0;exitDy=0;entryX=1;entryY=0.5;entryDx=0;entryDy=0;" parent="1" source="Nx4FLfZ7HG3fZNsCcpe--24" target="Nx4FLfZ7HG3fZNsCcpe--62" edge="1">
          <mxGeometry width="50" height="50" relative="1" as="geometry">
            <mxPoint x="380" y="710" as="sourcePoint" />
            <mxPoint x="430" y="660" as="targetPoint" />
          </mxGeometry>
        </mxCell>
        <mxCell id="WtRjEL5a1TLRnZF8yTDm-20" value="order confirmation" style="edgeLabel;html=1;align=center;verticalAlign=middle;resizable=0;points=[];rotation=20;" parent="Nx4FLfZ7HG3fZNsCcpe--85" vertex="1" connectable="0">
          <mxGeometry x="0.2968" relative="1" as="geometry">
            <mxPoint x="17" y="1" as="offset" />
          </mxGeometry>
        </mxCell>
        <mxCell id="Nx4FLfZ7HG3fZNsCcpe--87" value="" style="endArrow=classic;html=1;rounded=0;exitX=1;exitY=0.75;exitDx=0;exitDy=0;entryX=0.01;entryY=0.099;entryDx=0;entryDy=0;entryPerimeter=0;" parent="1" source="Nx4FLfZ7HG3fZNsCcpe--62" target="Nx4FLfZ7HG3fZNsCcpe--25" edge="1">
          <mxGeometry width="50" height="50" relative="1" as="geometry">
            <mxPoint x="270" y="503" as="sourcePoint" />
            <mxPoint x="439" y="439" as="targetPoint" />
          </mxGeometry>
        </mxCell>
        <mxCell id="WtRjEL5a1TLRnZF8yTDm-21" value="place order" style="edgeLabel;html=1;align=center;verticalAlign=middle;resizable=0;points=[];rotation=25;" parent="Nx4FLfZ7HG3fZNsCcpe--87" vertex="1" connectable="0">
          <mxGeometry x="-0.4791" relative="1" as="geometry">
            <mxPoint x="32" y="14" as="offset" />
          </mxGeometry>
        </mxCell>
        <mxCell id="Nx4FLfZ7HG3fZNsCcpe--92" value="" style="endArrow=classic;html=1;rounded=0;exitX=1;exitY=0.25;exitDx=0;exitDy=0;entryX=0;entryY=0.5;entryDx=0;entryDy=0;" parent="1" source="Nx4FLfZ7HG3fZNsCcpe--51" target="Nx4FLfZ7HG3fZNsCcpe--25" edge="1">
          <mxGeometry width="50" height="50" relative="1" as="geometry">
            <mxPoint x="270" y="528" as="sourcePoint" />
            <mxPoint x="430" y="610" as="targetPoint" />
          </mxGeometry>
        </mxCell>
        <mxCell id="WtRjEL5a1TLRnZF8yTDm-22" value="order status" style="edgeLabel;html=1;align=center;verticalAlign=middle;resizable=0;points=[];rotation=-20;" parent="Nx4FLfZ7HG3fZNsCcpe--92" vertex="1" connectable="0">
          <mxGeometry x="-0.4493" y="1" relative="1" as="geometry">
            <mxPoint x="23" y="-14" as="offset" />
          </mxGeometry>
        </mxCell>
        <mxCell id="Nx4FLfZ7HG3fZNsCcpe--93" value="" style="endArrow=classic;html=1;rounded=0;exitX=1;exitY=0.5;exitDx=0;exitDy=0;entryX=0;entryY=0.5;entryDx=0;entryDy=0;edgeStyle=orthogonalEdgeStyle;" parent="1" target="Nx4FLfZ7HG3fZNsCcpe--66" edge="1">
          <mxGeometry width="50" height="50" relative="1" as="geometry">
            <mxPoint x="570" y="603" as="sourcePoint" />
            <mxPoint x="730" y="890" as="targetPoint" />
          </mxGeometry>
        </mxCell>
        <mxCell id="WtRjEL5a1TLRnZF8yTDm-24" value="order update" style="edgeLabel;html=1;align=center;verticalAlign=middle;resizable=0;points=[];rotation=0;" parent="Nx4FLfZ7HG3fZNsCcpe--93" vertex="1" connectable="0">
          <mxGeometry x="-0.3" relative="1" as="geometry">
            <mxPoint x="-15" y="-1" as="offset" />
          </mxGeometry>
        </mxCell>
        <mxCell id="Nx4FLfZ7HG3fZNsCcpe--96" value="" style="endArrow=classic;html=1;rounded=0;exitX=1;exitY=0.75;exitDx=0;exitDy=0;entryX=-0.008;entryY=-0.011;entryDx=0;entryDy=0;entryPerimeter=0;" parent="1" source="Nx4FLfZ7HG3fZNsCcpe--51" target="Nx4FLfZ7HG3fZNsCcpe--27" edge="1">
          <mxGeometry width="50" height="50" relative="1" as="geometry">
            <mxPoint x="520" y="780" as="sourcePoint" />
            <mxPoint x="570" y="730" as="targetPoint" />
          </mxGeometry>
        </mxCell>
        <mxCell id="WtRjEL5a1TLRnZF8yTDm-23" value="manage order data" style="edgeLabel;html=1;align=center;verticalAlign=middle;resizable=0;points=[];rotation=20;" parent="Nx4FLfZ7HG3fZNsCcpe--96" vertex="1" connectable="0">
          <mxGeometry x="-0.2858" relative="1" as="geometry">
            <mxPoint x="10" as="offset" />
          </mxGeometry>
        </mxCell>
        <mxCell id="Nx4FLfZ7HG3fZNsCcpe--99" value="" style="endArrow=classic;html=1;rounded=0;exitX=0.997;exitY=0.216;exitDx=0;exitDy=0;entryX=0;entryY=0.5;entryDx=0;entryDy=0;exitPerimeter=0;edgeStyle=orthogonalEdgeStyle;" parent="1" source="Nx4FLfZ7HG3fZNsCcpe--27" target="Nx4FLfZ7HG3fZNsCcpe--68" edge="1">
          <mxGeometry width="50" height="50" relative="1" as="geometry">
            <mxPoint x="580" y="890" as="sourcePoint" />
            <mxPoint x="630" y="840" as="targetPoint" />
          </mxGeometry>
        </mxCell>
        <mxCell id="WtRjEL5a1TLRnZF8yTDm-25" value="access and update" style="edgeLabel;html=1;align=center;verticalAlign=middle;resizable=0;points=[];" parent="Nx4FLfZ7HG3fZNsCcpe--99" vertex="1" connectable="0">
          <mxGeometry x="-0.479" relative="1" as="geometry">
            <mxPoint x="51" y="-1" as="offset" />
          </mxGeometry>
        </mxCell>
        <mxCell id="Nx4FLfZ7HG3fZNsCcpe--105" style="edgeStyle=orthogonalEdgeStyle;rounded=0;orthogonalLoop=1;jettySize=auto;html=1;exitX=0;exitY=0.75;exitDx=0;exitDy=0;entryX=0.211;entryY=1.335;entryDx=0;entryDy=0;entryPerimeter=0;" parent="1" source="Nx4FLfZ7HG3fZNsCcpe--62" target="Nx4FLfZ7HG3fZNsCcpe--30" edge="1">
          <mxGeometry relative="1" as="geometry">
            <Array as="points">
              <mxPoint x="110" y="517" />
              <mxPoint x="110" y="970" />
              <mxPoint x="460" y="970" />
            </Array>
          </mxGeometry>
        </mxCell>
        <mxCell id="WtRjEL5a1TLRnZF8yTDm-32" value="payment process" style="edgeLabel;html=1;align=center;verticalAlign=middle;resizable=0;points=[];" parent="Nx4FLfZ7HG3fZNsCcpe--105" vertex="1" connectable="0">
          <mxGeometry x="0.3973" relative="1" as="geometry">
            <mxPoint y="-2" as="offset" />
          </mxGeometry>
        </mxCell>
        <mxCell id="Nx4FLfZ7HG3fZNsCcpe--116" value="" style="endArrow=classic;html=1;rounded=0;exitX=1;exitY=0.5;exitDx=0;exitDy=0;entryX=0;entryY=0.5;entryDx=0;entryDy=0;edgeStyle=orthogonalEdgeStyle;" parent="1" source="Nx4FLfZ7HG3fZNsCcpe--29" target="Nx4FLfZ7HG3fZNsCcpe--71" edge="1">
          <mxGeometry width="50" height="50" relative="1" as="geometry">
            <mxPoint x="610" y="870" as="sourcePoint" />
            <mxPoint x="660" y="820" as="targetPoint" />
          </mxGeometry>
        </mxCell>
        <mxCell id="WtRjEL5a1TLRnZF8yTDm-26" value="updated payment status&amp;nbsp;" style="edgeLabel;html=1;align=center;verticalAlign=middle;resizable=0;points=[];" parent="Nx4FLfZ7HG3fZNsCcpe--116" vertex="1" connectable="0">
          <mxGeometry x="-0.4527" y="1" relative="1" as="geometry">
            <mxPoint x="52" y="-2" as="offset" />
          </mxGeometry>
        </mxCell>
        <mxCell id="Nx4FLfZ7HG3fZNsCcpe--119" value="" style="endArrow=classic;html=1;rounded=0;entryX=1;entryY=0.5;entryDx=0;entryDy=0;exitX=0.5;exitY=1;exitDx=0;exitDy=0;edgeStyle=orthogonalEdgeStyle;" parent="1" source="Nx4FLfZ7HG3fZNsCcpe--72" target="Nx4FLfZ7HG3fZNsCcpe--30" edge="1">
          <mxGeometry width="50" height="50" relative="1" as="geometry">
            <mxPoint x="810" y="940" as="sourcePoint" />
            <mxPoint x="660" y="820" as="targetPoint" />
          </mxGeometry>
        </mxCell>
        <mxCell id="WtRjEL5a1TLRnZF8yTDm-27" value="payment status" style="edgeLabel;html=1;align=center;verticalAlign=middle;resizable=0;points=[];" parent="Nx4FLfZ7HG3fZNsCcpe--119" vertex="1" connectable="0">
          <mxGeometry x="0.2552" y="-1" relative="1" as="geometry">
            <mxPoint x="66" y="11" as="offset" />
          </mxGeometry>
        </mxCell>
        <mxCell id="Nx4FLfZ7HG3fZNsCcpe--121" value="" style="endArrow=classic;html=1;rounded=0;exitX=1;exitY=0.5;exitDx=0;exitDy=0;entryX=0;entryY=0.5;entryDx=0;entryDy=0;" parent="1" source="Nx4FLfZ7HG3fZNsCcpe--31" target="Nx4FLfZ7HG3fZNsCcpe--73" edge="1">
          <mxGeometry width="50" height="50" relative="1" as="geometry">
            <mxPoint x="600" y="980" as="sourcePoint" />
            <mxPoint x="650" y="930" as="targetPoint" />
          </mxGeometry>
        </mxCell>
        <mxCell id="WtRjEL5a1TLRnZF8yTDm-28" value="stock level" style="edgeLabel;html=1;align=center;verticalAlign=middle;resizable=0;points=[];" parent="Nx4FLfZ7HG3fZNsCcpe--121" vertex="1" connectable="0">
          <mxGeometry x="-0.4163" relative="1" as="geometry">
            <mxPoint as="offset" />
          </mxGeometry>
        </mxCell>
        <mxCell id="WtRjEL5a1TLRnZF8yTDm-36" value="" style="endArrow=classic;html=1;rounded=0;exitX=0;exitY=0.25;exitDx=0;exitDy=0;entryX=1;entryY=0.75;entryDx=0;entryDy=0;" parent="1" source="Nx4FLfZ7HG3fZNsCcpe--29" target="Nx4FLfZ7HG3fZNsCcpe--63" edge="1">
          <mxGeometry width="50" height="50" relative="1" as="geometry">
            <mxPoint x="300" y="940" as="sourcePoint" />
            <mxPoint x="350" y="890" as="targetPoint" />
          </mxGeometry>
        </mxCell>
        <mxCell id="WtRjEL5a1TLRnZF8yTDm-37" value="sending info for validation&amp;nbsp;" style="edgeLabel;html=1;align=center;verticalAlign=middle;resizable=0;points=[];" parent="WtRjEL5a1TLRnZF8yTDm-36" vertex="1" connectable="0">
          <mxGeometry x="0.5777" relative="1" as="geometry">
            <mxPoint x="52" as="offset" />
          </mxGeometry>
        </mxCell>
        <mxCell id="WtRjEL5a1TLRnZF8yTDm-39" value="1.1" style="swimlane;html=1;fontStyle=0;childLayout=stackLayout;horizontal=1;startSize=26;fillColor=#e0e0e0;horizontalStack=0;resizeParent=1;resizeLast=0;collapsible=1;marginBottom=0;swimlaneFillColor=#ffffff;align=center;rounded=1;shadow=0;comic=0;labelBackgroundColor=none;strokeWidth=1;fontFamily=Verdana;fontSize=12" parent="1" vertex="1">
          <mxGeometry x="1390" y="46" width="140" height="52" as="geometry" />
        </mxCell>
        <mxCell id="WtRjEL5a1TLRnZF8yTDm-57" style="edgeStyle=orthogonalEdgeStyle;rounded=0;orthogonalLoop=1;jettySize=auto;html=1;exitX=1;exitY=0.5;exitDx=0;exitDy=0;entryX=0.5;entryY=1;entryDx=0;entryDy=0;" parent="1" source="WtRjEL5a1TLRnZF8yTDm-41" target="WtRjEL5a1TLRnZF8yTDm-53" edge="1">
          <mxGeometry relative="1" as="geometry" />
        </mxCell>
        <mxCell id="WtRjEL5a1TLRnZF8yTDm-58" value="update user data" style="edgeLabel;html=1;align=center;verticalAlign=middle;resizable=0;points=[];" parent="WtRjEL5a1TLRnZF8yTDm-57" vertex="1" connectable="0">
          <mxGeometry x="-0.1665" y="-1" relative="1" as="geometry">
            <mxPoint as="offset" />
          </mxGeometry>
        </mxCell>
        <mxCell id="WtRjEL5a1TLRnZF8yTDm-41" value="1.3" style="swimlane;html=1;fontStyle=0;childLayout=stackLayout;horizontal=1;startSize=26;fillColor=#e0e0e0;horizontalStack=0;resizeParent=1;resizeLast=0;collapsible=1;marginBottom=0;swimlaneFillColor=#ffffff;align=center;rounded=1;shadow=0;comic=0;labelBackgroundColor=none;strokeWidth=1;fontFamily=Verdana;fontSize=12" parent="1" vertex="1">
          <mxGeometry x="1450" y="306" width="140" height="52" as="geometry" />
        </mxCell>
        <mxCell id="WtRjEL5a1TLRnZF8yTDm-42" value="update user profile" style="text;html=1;strokeColor=none;fillColor=none;spacingLeft=4;spacingRight=4;whiteSpace=wrap;overflow=hidden;rotatable=0;points=[[0,0.5],[1,0.5]];portConstraint=eastwest;align=center;" parent="WtRjEL5a1TLRnZF8yTDm-41" vertex="1">
          <mxGeometry y="26" width="140" height="26" as="geometry" />
        </mxCell>
        <mxCell id="WtRjEL5a1TLRnZF8yTDm-43" value="1.2" style="swimlane;html=1;fontStyle=0;childLayout=stackLayout;horizontal=1;startSize=26;fillColor=#e0e0e0;horizontalStack=0;resizeParent=1;resizeLast=0;collapsible=1;marginBottom=0;swimlaneFillColor=#ffffff;align=center;rounded=1;shadow=0;comic=0;labelBackgroundColor=none;strokeWidth=1;fontFamily=Verdana;fontSize=12" parent="1" vertex="1">
          <mxGeometry x="1530" y="176" width="140" height="52" as="geometry" />
        </mxCell>
        <mxCell id="WtRjEL5a1TLRnZF8yTDm-44" value="verify identity" style="text;html=1;strokeColor=none;fillColor=none;spacingLeft=4;spacingRight=4;whiteSpace=wrap;overflow=hidden;rotatable=0;points=[[0,0.5],[1,0.5]];portConstraint=eastwest;align=center;" parent="WtRjEL5a1TLRnZF8yTDm-43" vertex="1">
          <mxGeometry y="26" width="140" height="26" as="geometry" />
        </mxCell>
        <mxCell id="WtRjEL5a1TLRnZF8yTDm-40" value="register user" style="text;html=1;strokeColor=none;fillColor=none;spacingLeft=4;spacingRight=4;whiteSpace=wrap;overflow=hidden;rotatable=0;points=[[0,0.5],[1,0.5]];portConstraint=eastwest;align=center;" parent="1" vertex="1">
          <mxGeometry x="1390" y="72" width="140" height="26" as="geometry" />
        </mxCell>
        <mxCell id="WtRjEL5a1TLRnZF8yTDm-47" value="" style="endArrow=classic;html=1;rounded=0;exitX=0.534;exitY=1.324;exitDx=0;exitDy=0;entryX=0;entryY=0.026;entryDx=0;entryDy=0;entryPerimeter=0;exitPerimeter=0;" parent="1" source="WtRjEL5a1TLRnZF8yTDm-40" target="WtRjEL5a1TLRnZF8yTDm-44" edge="1">
          <mxGeometry width="50" height="50" relative="1" as="geometry">
            <mxPoint x="1598" y="236" as="sourcePoint" />
            <mxPoint x="1648" y="186" as="targetPoint" />
            <Array as="points">
              <mxPoint x="1465" y="203" />
            </Array>
          </mxGeometry>
        </mxCell>
        <mxCell id="WtRjEL5a1TLRnZF8yTDm-54" value="user connection" style="edgeLabel;html=1;align=center;verticalAlign=middle;resizable=0;points=[];" parent="WtRjEL5a1TLRnZF8yTDm-47" vertex="1" connectable="0">
          <mxGeometry x="-0.4195" relative="1" as="geometry">
            <mxPoint as="offset" />
          </mxGeometry>
        </mxCell>
        <mxCell id="WtRjEL5a1TLRnZF8yTDm-49" value="User" style="whiteSpace=wrap;html=1;rounded=0;shadow=0;comic=0;labelBackgroundColor=none;strokeWidth=1;fontFamily=Verdana;fontSize=12;align=center;" parent="1" vertex="1">
          <mxGeometry x="1250" y="178" width="120" height="50" as="geometry" />
        </mxCell>
        <mxCell id="WtRjEL5a1TLRnZF8yTDm-52" value="D1" style="html=1;dashed=0;whiteSpace=wrap;shape=mxgraph.dfd.dataStoreID;align=left;spacingLeft=3;points=[[0,0],[0.5,0],[1,0],[0,0.5],[1,0.5],[0,1],[0.5,1],[1,1]];" parent="1" vertex="1">
          <mxGeometry x="1820" y="187" width="100" height="30" as="geometry" />
        </mxCell>
        <mxCell id="WtRjEL5a1TLRnZF8yTDm-53" value="User DB" style="text;html=1;align=center;verticalAlign=middle;whiteSpace=wrap;rounded=0;" parent="1" vertex="1">
          <mxGeometry x="1850" y="187" width="60" height="30" as="geometry" />
        </mxCell>
        <mxCell id="WtRjEL5a1TLRnZF8yTDm-55" value="" style="endArrow=classic;html=1;rounded=0;exitX=0.51;exitY=1.091;exitDx=0;exitDy=0;entryX=0.5;entryY=0;entryDx=0;entryDy=0;exitPerimeter=0;" parent="1" source="WtRjEL5a1TLRnZF8yTDm-44" target="WtRjEL5a1TLRnZF8yTDm-41" edge="1">
          <mxGeometry width="50" height="50" relative="1" as="geometry">
            <mxPoint x="1475" y="116" as="sourcePoint" />
            <mxPoint x="1540" y="213" as="targetPoint" />
            <Array as="points">
              <mxPoint x="1600" y="236" />
              <mxPoint x="1520" y="236" />
            </Array>
          </mxGeometry>
        </mxCell>
        <mxCell id="WtRjEL5a1TLRnZF8yTDm-56" value="user data" style="edgeLabel;html=1;align=center;verticalAlign=middle;resizable=0;points=[];" parent="WtRjEL5a1TLRnZF8yTDm-55" vertex="1" connectable="0">
          <mxGeometry x="-0.4195" relative="1" as="geometry">
            <mxPoint x="-37" y="21" as="offset" />
          </mxGeometry>
        </mxCell>
        <mxCell id="WtRjEL5a1TLRnZF8yTDm-60" value="" style="endArrow=classic;html=1;rounded=0;exitX=0.5;exitY=0;exitDx=0;exitDy=0;entryX=-0.019;entryY=-0.062;entryDx=0;entryDy=0;entryPerimeter=0;" parent="1" source="WtRjEL5a1TLRnZF8yTDm-49" target="WtRjEL5a1TLRnZF8yTDm-40" edge="1">
          <mxGeometry width="50" height="50" relative="1" as="geometry">
            <mxPoint x="1510" y="206" as="sourcePoint" />
            <mxPoint x="1560" y="156" as="targetPoint" />
            <Array as="points">
              <mxPoint x="1310" y="70" />
            </Array>
          </mxGeometry>
        </mxCell>
        <mxCell id="WtRjEL5a1TLRnZF8yTDm-61" value="Registration Information" style="edgeLabel;html=1;align=center;verticalAlign=middle;resizable=0;points=[];" parent="WtRjEL5a1TLRnZF8yTDm-60" vertex="1" connectable="0">
          <mxGeometry x="-0.2231" relative="1" as="geometry">
            <mxPoint as="offset" />
          </mxGeometry>
        </mxCell>
        <mxCell id="WtRjEL5a1TLRnZF8yTDm-62" value="" style="endArrow=classic;html=1;rounded=0;exitX=1;exitY=0.5;exitDx=0;exitDy=0;entryX=0;entryY=0.5;entryDx=0;entryDy=0;" parent="1" source="WtRjEL5a1TLRnZF8yTDm-43" target="WtRjEL5a1TLRnZF8yTDm-52" edge="1">
          <mxGeometry width="50" height="50" relative="1" as="geometry">
            <mxPoint x="1670" y="107" as="sourcePoint" />
            <mxPoint x="1720" y="57" as="targetPoint" />
          </mxGeometry>
        </mxCell>
        <mxCell id="WtRjEL5a1TLRnZF8yTDm-63" value="Accesses user data" style="edgeLabel;html=1;align=center;verticalAlign=middle;resizable=0;points=[];" parent="WtRjEL5a1TLRnZF8yTDm-62" vertex="1" connectable="0">
          <mxGeometry x="-0.3111" y="-2" relative="1" as="geometry">
            <mxPoint x="17" as="offset" />
          </mxGeometry>
        </mxCell>
        <mxCell id="WtRjEL5a1TLRnZF8yTDm-64" value="" style="endArrow=classic;html=1;rounded=0;exitX=1;exitY=0.5;exitDx=0;exitDy=0;entryX=0.5;entryY=0;entryDx=0;entryDy=0;edgeStyle=orthogonalEdgeStyle;" parent="1" source="WtRjEL5a1TLRnZF8yTDm-39" target="WtRjEL5a1TLRnZF8yTDm-53" edge="1">
          <mxGeometry width="50" height="50" relative="1" as="geometry">
            <mxPoint x="1540" y="76" as="sourcePoint" />
            <mxPoint x="1970" y="66" as="targetPoint" />
          </mxGeometry>
        </mxCell>
        <mxCell id="WtRjEL5a1TLRnZF8yTDm-67" value="stores new user info" style="edgeLabel;html=1;align=center;verticalAlign=middle;resizable=0;points=[];" parent="WtRjEL5a1TLRnZF8yTDm-64" vertex="1" connectable="0">
          <mxGeometry x="0.7354" y="2" relative="1" as="geometry">
            <mxPoint as="offset" />
          </mxGeometry>
        </mxCell>
        <mxCell id="WtRjEL5a1TLRnZF8yTDm-68" value="" style="endArrow=classic;html=1;rounded=0;exitX=0.5;exitY=1;exitDx=0;exitDy=0;entryX=0;entryY=0.352;entryDx=0;entryDy=0;entryPerimeter=0;edgeStyle=orthogonalEdgeStyle;" parent="1" source="WtRjEL5a1TLRnZF8yTDm-49" target="WtRjEL5a1TLRnZF8yTDm-41" edge="1">
          <mxGeometry width="50" height="50" relative="1" as="geometry">
            <mxPoint x="1670" y="146" as="sourcePoint" />
            <mxPoint x="1310" y="406" as="targetPoint" />
          </mxGeometry>
        </mxCell>
        <mxCell id="WtRjEL5a1TLRnZF8yTDm-69" value="profile update request" style="edgeLabel;html=1;align=center;verticalAlign=middle;resizable=0;points=[];" parent="WtRjEL5a1TLRnZF8yTDm-68" vertex="1" connectable="0">
          <mxGeometry x="-0.6005" y="-1" relative="1" as="geometry">
            <mxPoint y="8" as="offset" />
          </mxGeometry>
        </mxCell>
        <mxCell id="WtRjEL5a1TLRnZF8yTDm-70" value="" style="endArrow=classic;html=1;rounded=0;exitX=0;exitY=0.5;exitDx=0;exitDy=0;entryX=0.008;entryY=0.372;entryDx=0;entryDy=0;entryPerimeter=0;edgeStyle=orthogonalEdgeStyle;" parent="1" source="WtRjEL5a1TLRnZF8yTDm-42" target="WtRjEL5a1TLRnZF8yTDm-49" edge="1">
          <mxGeometry width="50" height="50" relative="1" as="geometry">
            <mxPoint x="1480" y="256" as="sourcePoint" />
            <mxPoint x="1220" y="146" as="targetPoint" />
            <Array as="points">
              <mxPoint x="1220" y="345" />
              <mxPoint x="1220" y="197" />
            </Array>
          </mxGeometry>
        </mxCell>
        <mxCell id="WtRjEL5a1TLRnZF8yTDm-71" value="update confirmation&amp;nbsp;" style="edgeLabel;html=1;align=center;verticalAlign=middle;resizable=0;points=[];" parent="WtRjEL5a1TLRnZF8yTDm-70" vertex="1" connectable="0">
          <mxGeometry x="0.4053" y="-3" relative="1" as="geometry">
            <mxPoint y="-40" as="offset" />
          </mxGeometry>
        </mxCell>
        <mxCell id="WtRjEL5a1TLRnZF8yTDm-72" value="" style="endArrow=classic;html=1;rounded=0;exitX=1;exitY=0.5;exitDx=0;exitDy=0;entryX=1;entryY=0.25;entryDx=0;entryDy=0;edgeStyle=orthogonalEdgeStyle;" parent="1" source="WtRjEL5a1TLRnZF8yTDm-52" target="WtRjEL5a1TLRnZF8yTDm-39" edge="1">
          <mxGeometry width="50" height="50" relative="1" as="geometry">
            <mxPoint x="1610" y="246" as="sourcePoint" />
            <mxPoint x="1500" y="136" as="targetPoint" />
            <Array as="points">
              <mxPoint x="1950" y="202" />
              <mxPoint x="1950" y="59" />
            </Array>
          </mxGeometry>
        </mxCell>
        <mxCell id="WtRjEL5a1TLRnZF8yTDm-73" value="Access user data" style="edgeLabel;html=1;align=center;verticalAlign=middle;resizable=0;points=[];" parent="WtRjEL5a1TLRnZF8yTDm-72" vertex="1" connectable="0">
          <mxGeometry x="0.1872" y="1" relative="1" as="geometry">
            <mxPoint y="-2" as="offset" />
          </mxGeometry>
        </mxCell>
        <mxCell id="WtRjEL5a1TLRnZF8yTDm-74" value="" style="endArrow=classic;html=1;rounded=0;exitX=0;exitY=0;exitDx=0;exitDy=0;entryX=0.75;entryY=0;entryDx=0;entryDy=0;edgeStyle=orthogonalEdgeStyle;" parent="1" source="WtRjEL5a1TLRnZF8yTDm-53" target="WtRjEL5a1TLRnZF8yTDm-43" edge="1">
          <mxGeometry width="50" height="50" relative="1" as="geometry">
            <mxPoint x="1650" y="276" as="sourcePoint" />
            <mxPoint x="1640" y="156" as="targetPoint" />
            <Array as="points">
              <mxPoint x="1850" y="150" />
              <mxPoint x="1635" y="150" />
            </Array>
          </mxGeometry>
        </mxCell>
        <mxCell id="WtRjEL5a1TLRnZF8yTDm-75" value="storing new user info" style="edgeLabel;html=1;align=center;verticalAlign=middle;resizable=0;points=[];" parent="WtRjEL5a1TLRnZF8yTDm-74" vertex="1" connectable="0">
          <mxGeometry x="0.3843" y="3" relative="1" as="geometry">
            <mxPoint x="48" y="-4" as="offset" />
          </mxGeometry>
        </mxCell>
        <mxCell id="WtRjEL5a1TLRnZF8yTDm-76" value="2.1" style="swimlane;html=1;fontStyle=0;childLayout=stackLayout;horizontal=1;startSize=26;fillColor=#e0e0e0;horizontalStack=0;resizeParent=1;resizeLast=0;collapsible=1;marginBottom=0;swimlaneFillColor=#ffffff;align=center;rounded=1;shadow=0;comic=0;labelBackgroundColor=none;strokeWidth=1;fontFamily=Verdana;fontSize=12" parent="1" vertex="1">
          <mxGeometry x="1438" y="460" width="140" height="52" as="geometry" />
        </mxCell>
        <mxCell id="WtRjEL5a1TLRnZF8yTDm-77" value="place order" style="text;html=1;strokeColor=none;fillColor=none;spacingLeft=4;spacingRight=4;whiteSpace=wrap;overflow=hidden;rotatable=0;points=[[0,0.5],[1,0.5]];portConstraint=eastwest;align=center;" parent="WtRjEL5a1TLRnZF8yTDm-76" vertex="1">
          <mxGeometry y="26" width="140" height="26" as="geometry" />
        </mxCell>
        <mxCell id="WtRjEL5a1TLRnZF8yTDm-78" value="2.2" style="swimlane;html=1;fontStyle=0;childLayout=stackLayout;horizontal=1;startSize=26;fillColor=#e0e0e0;horizontalStack=0;resizeParent=1;resizeLast=0;collapsible=1;marginBottom=0;swimlaneFillColor=#ffffff;align=center;rounded=1;shadow=0;comic=0;labelBackgroundColor=none;strokeWidth=1;fontFamily=Verdana;fontSize=12" parent="1" vertex="1">
          <mxGeometry x="1528" y="571" width="140" height="52" as="geometry" />
        </mxCell>
        <mxCell id="WtRjEL5a1TLRnZF8yTDm-79" value="update order status" style="text;html=1;strokeColor=none;fillColor=none;spacingLeft=4;spacingRight=4;whiteSpace=wrap;overflow=hidden;rotatable=0;points=[[0,0.5],[1,0.5]];portConstraint=eastwest;align=center;" parent="WtRjEL5a1TLRnZF8yTDm-78" vertex="1">
          <mxGeometry y="26" width="140" height="26" as="geometry" />
        </mxCell>
        <mxCell id="WtRjEL5a1TLRnZF8yTDm-106" style="edgeStyle=orthogonalEdgeStyle;rounded=0;orthogonalLoop=1;jettySize=auto;html=1;exitX=0.25;exitY=0;exitDx=0;exitDy=0;entryX=1;entryY=0.5;entryDx=0;entryDy=0;" parent="1" source="WtRjEL5a1TLRnZF8yTDm-80" target="WtRjEL5a1TLRnZF8yTDm-87" edge="1">
          <mxGeometry relative="1" as="geometry" />
        </mxCell>
        <mxCell id="WtRjEL5a1TLRnZF8yTDm-107" value="cancellation report" style="edgeLabel;html=1;align=center;verticalAlign=middle;resizable=0;points=[];" parent="WtRjEL5a1TLRnZF8yTDm-106" vertex="1" connectable="0">
          <mxGeometry x="-0.256" relative="1" as="geometry">
            <mxPoint as="offset" />
          </mxGeometry>
        </mxCell>
        <mxCell id="WtRjEL5a1TLRnZF8yTDm-80" value="2.3" style="swimlane;html=1;fontStyle=0;childLayout=stackLayout;horizontal=1;startSize=26;fillColor=#e0e0e0;horizontalStack=0;resizeParent=1;resizeLast=0;collapsible=1;marginBottom=0;swimlaneFillColor=#ffffff;align=center;rounded=1;shadow=0;comic=0;labelBackgroundColor=none;strokeWidth=1;fontFamily=Verdana;fontSize=12" parent="1" vertex="1">
          <mxGeometry x="1438" y="720" width="140" height="52" as="geometry" />
        </mxCell>
        <mxCell id="WtRjEL5a1TLRnZF8yTDm-81" value="cancel order" style="text;html=1;strokeColor=none;fillColor=none;spacingLeft=4;spacingRight=4;whiteSpace=wrap;overflow=hidden;rotatable=0;points=[[0,0.5],[1,0.5]];portConstraint=eastwest;align=center;" parent="WtRjEL5a1TLRnZF8yTDm-80" vertex="1">
          <mxGeometry y="26" width="140" height="26" as="geometry" />
        </mxCell>
        <mxCell id="WtRjEL5a1TLRnZF8yTDm-85" value="D2" style="html=1;dashed=0;whiteSpace=wrap;shape=mxgraph.dfd.dataStoreID;align=left;spacingLeft=3;points=[[0,0],[0.5,0],[1,0],[0,0.5],[1,0.5],[0,1],[0.5,1],[1,1]];" parent="1" vertex="1">
          <mxGeometry x="1838" y="573" width="100" height="30" as="geometry" />
        </mxCell>
        <mxCell id="WtRjEL5a1TLRnZF8yTDm-86" value="Current Orders" style="text;html=1;align=center;verticalAlign=middle;whiteSpace=wrap;rounded=0;" parent="1" vertex="1">
          <mxGeometry x="1868" y="573" width="60" height="30" as="geometry" />
        </mxCell>
        <mxCell id="WtRjEL5a1TLRnZF8yTDm-87" value="User" style="whiteSpace=wrap;html=1;rounded=0;shadow=0;comic=0;labelBackgroundColor=none;strokeWidth=1;fontFamily=Verdana;fontSize=12;align=center;" parent="1" vertex="1">
          <mxGeometry x="1258" y="562" width="120" height="50" as="geometry" />
        </mxCell>
        <mxCell id="WtRjEL5a1TLRnZF8yTDm-88" value="" style="endArrow=classic;html=1;rounded=0;exitX=0.5;exitY=0;exitDx=0;exitDy=0;entryX=0;entryY=0.5;entryDx=0;entryDy=0;edgeStyle=orthogonalEdgeStyle;" parent="1" source="WtRjEL5a1TLRnZF8yTDm-87" target="WtRjEL5a1TLRnZF8yTDm-76" edge="1">
          <mxGeometry width="50" height="50" relative="1" as="geometry">
            <mxPoint x="1293" y="512" as="sourcePoint" />
            <mxPoint x="1343" y="462" as="targetPoint" />
          </mxGeometry>
        </mxCell>
        <mxCell id="WtRjEL5a1TLRnZF8yTDm-89" value="submit an order" style="edgeLabel;html=1;align=center;verticalAlign=middle;resizable=0;points=[];" parent="WtRjEL5a1TLRnZF8yTDm-88" vertex="1" connectable="0">
          <mxGeometry x="0.0351" y="-2" relative="1" as="geometry">
            <mxPoint x="-13" y="29" as="offset" />
          </mxGeometry>
        </mxCell>
        <mxCell id="WtRjEL5a1TLRnZF8yTDm-90" value="" style="endArrow=classic;html=1;rounded=0;exitX=1;exitY=0.5;exitDx=0;exitDy=0;entryX=0.5;entryY=0;entryDx=0;entryDy=0;" parent="1" source="WtRjEL5a1TLRnZF8yTDm-76" target="WtRjEL5a1TLRnZF8yTDm-86" edge="1">
          <mxGeometry width="50" height="50" relative="1" as="geometry">
            <mxPoint x="1588" y="610" as="sourcePoint" />
            <mxPoint x="1638" y="560" as="targetPoint" />
            <Array as="points">
              <mxPoint x="1898" y="486" />
            </Array>
          </mxGeometry>
        </mxCell>
        <mxCell id="WtRjEL5a1TLRnZF8yTDm-91" value="New order data" style="edgeLabel;html=1;align=center;verticalAlign=middle;resizable=0;points=[];" parent="WtRjEL5a1TLRnZF8yTDm-90" vertex="1" connectable="0">
          <mxGeometry x="-0.4663" relative="1" as="geometry">
            <mxPoint as="offset" />
          </mxGeometry>
        </mxCell>
        <mxCell id="WtRjEL5a1TLRnZF8yTDm-92" value="" style="endArrow=classic;html=1;rounded=0;entryX=0.5;entryY=1;entryDx=0;entryDy=0;edgeStyle=orthogonalEdgeStyle;" parent="1" target="WtRjEL5a1TLRnZF8yTDm-85" edge="1">
          <mxGeometry width="50" height="50" relative="1" as="geometry">
            <mxPoint x="1668" y="610" as="sourcePoint" />
            <mxPoint x="1638" y="560" as="targetPoint" />
            <Array as="points">
              <mxPoint x="1688" y="610" />
              <mxPoint x="1688" y="624" />
              <mxPoint x="1888" y="624" />
            </Array>
          </mxGeometry>
        </mxCell>
        <mxCell id="WtRjEL5a1TLRnZF8yTDm-93" value="updated order status" style="edgeLabel;html=1;align=center;verticalAlign=middle;resizable=0;points=[];" parent="WtRjEL5a1TLRnZF8yTDm-92" vertex="1" connectable="0">
          <mxGeometry x="-0.3749" relative="1" as="geometry">
            <mxPoint x="20" as="offset" />
          </mxGeometry>
        </mxCell>
        <mxCell id="WtRjEL5a1TLRnZF8yTDm-95" value="" style="endArrow=classic;html=1;rounded=0;exitX=1;exitY=0.5;exitDx=0;exitDy=0;entryX=1;entryY=1;entryDx=0;entryDy=0;edgeStyle=orthogonalEdgeStyle;" parent="1" source="WtRjEL5a1TLRnZF8yTDm-80" target="WtRjEL5a1TLRnZF8yTDm-86" edge="1">
          <mxGeometry width="50" height="50" relative="1" as="geometry">
            <mxPoint x="1588" y="610" as="sourcePoint" />
            <mxPoint x="1638" y="560" as="targetPoint" />
          </mxGeometry>
        </mxCell>
        <mxCell id="WtRjEL5a1TLRnZF8yTDm-96" value="canceled status" style="edgeLabel;html=1;align=center;verticalAlign=middle;resizable=0;points=[];" parent="WtRjEL5a1TLRnZF8yTDm-95" vertex="1" connectable="0">
          <mxGeometry x="-0.3014" relative="1" as="geometry">
            <mxPoint y="-1" as="offset" />
          </mxGeometry>
        </mxCell>
        <mxCell id="WtRjEL5a1TLRnZF8yTDm-97" value="" style="endArrow=classic;html=1;rounded=0;exitX=0;exitY=0.5;exitDx=0;exitDy=0;entryX=1;entryY=0.25;entryDx=0;entryDy=0;edgeStyle=orthogonalEdgeStyle;" parent="1" source="WtRjEL5a1TLRnZF8yTDm-85" target="WtRjEL5a1TLRnZF8yTDm-78" edge="1">
          <mxGeometry width="50" height="50" relative="1" as="geometry">
            <mxPoint x="1828" y="570" as="sourcePoint" />
            <mxPoint x="1718" y="660" as="targetPoint" />
          </mxGeometry>
        </mxCell>
        <mxCell id="WtRjEL5a1TLRnZF8yTDm-98" value="order status" style="edgeLabel;html=1;align=center;verticalAlign=middle;resizable=0;points=[];" parent="WtRjEL5a1TLRnZF8yTDm-97" vertex="1" connectable="0">
          <mxGeometry x="0.1518" y="-1" relative="1" as="geometry">
            <mxPoint y="1" as="offset" />
          </mxGeometry>
        </mxCell>
        <mxCell id="WtRjEL5a1TLRnZF8yTDm-101" value="" style="endArrow=classic;html=1;rounded=0;exitX=0.75;exitY=1;exitDx=0;exitDy=0;entryX=0;entryY=0.5;entryDx=0;entryDy=0;" parent="1" source="WtRjEL5a1TLRnZF8yTDm-87" target="WtRjEL5a1TLRnZF8yTDm-81" edge="1">
          <mxGeometry width="50" height="50" relative="1" as="geometry">
            <mxPoint x="1608" y="620" as="sourcePoint" />
            <mxPoint x="1318" y="840" as="targetPoint" />
            <Array as="points">
              <mxPoint x="1348" y="759" />
            </Array>
          </mxGeometry>
        </mxCell>
        <mxCell id="WtRjEL5a1TLRnZF8yTDm-102" value="cancellation request" style="edgeLabel;html=1;align=center;verticalAlign=middle;resizable=0;points=[];" parent="WtRjEL5a1TLRnZF8yTDm-101" vertex="1" connectable="0">
          <mxGeometry x="-0.606" y="-1" relative="1" as="geometry">
            <mxPoint as="offset" />
          </mxGeometry>
        </mxCell>
        <mxCell id="WtRjEL5a1TLRnZF8yTDm-108" value="3.1" style="swimlane;html=1;fontStyle=0;childLayout=stackLayout;horizontal=1;startSize=26;fillColor=#e0e0e0;horizontalStack=0;resizeParent=1;resizeLast=0;collapsible=1;marginBottom=0;swimlaneFillColor=#ffffff;align=center;rounded=1;shadow=0;comic=0;labelBackgroundColor=none;strokeWidth=1;fontFamily=Verdana;fontSize=12" parent="1" vertex="1">
          <mxGeometry x="1408" y="889" width="140" height="52" as="geometry" />
        </mxCell>
        <mxCell id="WtRjEL5a1TLRnZF8yTDm-109" value="add product" style="text;html=1;strokeColor=none;fillColor=none;spacingLeft=4;spacingRight=4;whiteSpace=wrap;overflow=hidden;rotatable=0;points=[[0,0.5],[1,0.5]];portConstraint=eastwest;align=center;" parent="WtRjEL5a1TLRnZF8yTDm-108" vertex="1">
          <mxGeometry y="26" width="140" height="26" as="geometry" />
        </mxCell>
        <mxCell id="WtRjEL5a1TLRnZF8yTDm-110" value="3.2" style="swimlane;html=1;fontStyle=0;childLayout=stackLayout;horizontal=1;startSize=26;fillColor=#e0e0e0;horizontalStack=0;resizeParent=1;resizeLast=0;collapsible=1;marginBottom=0;swimlaneFillColor=#ffffff;align=center;rounded=1;shadow=0;comic=0;labelBackgroundColor=none;strokeWidth=1;fontFamily=Verdana;fontSize=12" parent="1" vertex="1">
          <mxGeometry x="1488" y="1009" width="140" height="52" as="geometry" />
        </mxCell>
        <mxCell id="WtRjEL5a1TLRnZF8yTDm-111" value="update product" style="text;html=1;strokeColor=none;fillColor=none;spacingLeft=4;spacingRight=4;whiteSpace=wrap;overflow=hidden;rotatable=0;points=[[0,0.5],[1,0.5]];portConstraint=eastwest;align=center;" parent="WtRjEL5a1TLRnZF8yTDm-110" vertex="1">
          <mxGeometry y="26" width="140" height="26" as="geometry" />
        </mxCell>
        <mxCell id="WtRjEL5a1TLRnZF8yTDm-112" value="3.3" style="swimlane;html=1;fontStyle=0;childLayout=stackLayout;horizontal=1;startSize=26;fillColor=#e0e0e0;horizontalStack=0;resizeParent=1;resizeLast=0;collapsible=1;marginBottom=0;swimlaneFillColor=#ffffff;align=center;rounded=1;shadow=0;comic=0;labelBackgroundColor=none;strokeWidth=1;fontFamily=Verdana;fontSize=12" parent="1" vertex="1">
          <mxGeometry x="1358" y="1119" width="140" height="52" as="geometry" />
        </mxCell>
        <mxCell id="WtRjEL5a1TLRnZF8yTDm-113" value="remove product" style="text;html=1;strokeColor=none;fillColor=none;spacingLeft=4;spacingRight=4;whiteSpace=wrap;overflow=hidden;rotatable=0;points=[[0,0.5],[1,0.5]];portConstraint=eastwest;align=center;" parent="WtRjEL5a1TLRnZF8yTDm-112" vertex="1">
          <mxGeometry y="26" width="140" height="26" as="geometry" />
        </mxCell>
        <mxCell id="WtRjEL5a1TLRnZF8yTDm-117" value="Admin" style="whiteSpace=wrap;html=1;rounded=0;shadow=0;comic=0;labelBackgroundColor=none;strokeWidth=1;fontFamily=Verdana;fontSize=12;align=center;" parent="1" vertex="1">
          <mxGeometry x="1208" y="1011" width="120" height="50" as="geometry" />
        </mxCell>
        <mxCell id="WtRjEL5a1TLRnZF8yTDm-123" value="D3" style="html=1;dashed=0;whiteSpace=wrap;shape=mxgraph.dfd.dataStoreID;align=left;spacingLeft=3;points=[[0,0],[0.5,0],[1,0],[0,0.5],[1,0.5],[0,1],[0.5,1],[1,1]];" parent="1" vertex="1">
          <mxGeometry x="1820" y="1019" width="100" height="30" as="geometry" />
        </mxCell>
        <mxCell id="WtRjEL5a1TLRnZF8yTDm-124" value="Product list" style="text;html=1;align=center;verticalAlign=middle;whiteSpace=wrap;rounded=0;" parent="1" vertex="1">
          <mxGeometry x="1850" y="1019" width="60" height="30" as="geometry" />
        </mxCell>
        <mxCell id="WtRjEL5a1TLRnZF8yTDm-125" value="" style="endArrow=classic;html=1;rounded=0;exitX=1;exitY=0.5;exitDx=0;exitDy=0;entryX=0.5;entryY=0;entryDx=0;entryDy=0;edgeStyle=orthogonalEdgeStyle;" parent="1" source="WtRjEL5a1TLRnZF8yTDm-108" target="WtRjEL5a1TLRnZF8yTDm-123" edge="1">
          <mxGeometry width="50" height="50" relative="1" as="geometry">
            <mxPoint x="1558" y="1080" as="sourcePoint" />
            <mxPoint x="1608" y="1030" as="targetPoint" />
          </mxGeometry>
        </mxCell>
        <mxCell id="WtRjEL5a1TLRnZF8yTDm-126" value="store new product" style="edgeLabel;html=1;align=center;verticalAlign=middle;resizable=0;points=[];" parent="WtRjEL5a1TLRnZF8yTDm-125" vertex="1" connectable="0">
          <mxGeometry x="-0.4875" relative="1" as="geometry">
            <mxPoint as="offset" />
          </mxGeometry>
        </mxCell>
        <mxCell id="WtRjEL5a1TLRnZF8yTDm-127" value="" style="endArrow=classic;html=1;rounded=0;exitX=1;exitY=0.5;exitDx=0;exitDy=0;entryX=0;entryY=0.5;entryDx=0;entryDy=0;" parent="1" source="WtRjEL5a1TLRnZF8yTDm-110" target="WtRjEL5a1TLRnZF8yTDm-123" edge="1">
          <mxGeometry width="50" height="50" relative="1" as="geometry">
            <mxPoint x="1558" y="1080" as="sourcePoint" />
            <mxPoint x="1608" y="1030" as="targetPoint" />
          </mxGeometry>
        </mxCell>
        <mxCell id="WtRjEL5a1TLRnZF8yTDm-128" value="update product info" style="edgeLabel;html=1;align=center;verticalAlign=middle;resizable=0;points=[];" parent="WtRjEL5a1TLRnZF8yTDm-127" vertex="1" connectable="0">
          <mxGeometry x="-0.3257" relative="1" as="geometry">
            <mxPoint as="offset" />
          </mxGeometry>
        </mxCell>
        <mxCell id="WtRjEL5a1TLRnZF8yTDm-129" value="" style="endArrow=classic;html=1;rounded=0;exitX=1;exitY=0.5;exitDx=0;exitDy=0;entryX=0.25;entryY=1;entryDx=0;entryDy=0;edgeStyle=orthogonalEdgeStyle;" parent="1" source="WtRjEL5a1TLRnZF8yTDm-112" target="WtRjEL5a1TLRnZF8yTDm-124" edge="1">
          <mxGeometry width="50" height="50" relative="1" as="geometry">
            <mxPoint x="1558" y="1080" as="sourcePoint" />
            <mxPoint x="1608" y="1030" as="targetPoint" />
          </mxGeometry>
        </mxCell>
        <mxCell id="WtRjEL5a1TLRnZF8yTDm-131" value="delete and update product info" style="edgeLabel;html=1;align=center;verticalAlign=middle;resizable=0;points=[];" parent="WtRjEL5a1TLRnZF8yTDm-129" vertex="1" connectable="0">
          <mxGeometry x="-0.2882" relative="1" as="geometry">
            <mxPoint as="offset" />
          </mxGeometry>
        </mxCell>
        <mxCell id="WtRjEL5a1TLRnZF8yTDm-132" value="" style="endArrow=classic;html=1;rounded=0;exitX=0.5;exitY=0;exitDx=0;exitDy=0;entryX=-0.01;entryY=-0.185;entryDx=0;entryDy=0;entryPerimeter=0;edgeStyle=orthogonalEdgeStyle;" parent="1" source="WtRjEL5a1TLRnZF8yTDm-117" target="WtRjEL5a1TLRnZF8yTDm-109" edge="1">
          <mxGeometry width="50" height="50" relative="1" as="geometry">
            <mxPoint x="1558" y="1080" as="sourcePoint" />
            <mxPoint x="1608" y="1030" as="targetPoint" />
          </mxGeometry>
        </mxCell>
        <mxCell id="WtRjEL5a1TLRnZF8yTDm-136" value="provides new product " style="edgeLabel;html=1;align=center;verticalAlign=middle;resizable=0;points=[];" parent="WtRjEL5a1TLRnZF8yTDm-132" vertex="1" connectable="0">
          <mxGeometry x="0.0781" y="-1" relative="1" as="geometry">
            <mxPoint x="31" y="-3" as="offset" />
          </mxGeometry>
        </mxCell>
        <mxCell id="WtRjEL5a1TLRnZF8yTDm-133" value="Admin" style="whiteSpace=wrap;html=1;rounded=0;shadow=0;comic=0;labelBackgroundColor=none;strokeWidth=1;fontFamily=Verdana;fontSize=12;align=center;" parent="1" vertex="1">
          <mxGeometry x="1208" y="700" width="120" height="50" as="geometry" />
        </mxCell>
        <mxCell id="WtRjEL5a1TLRnZF8yTDm-134" value="" style="endArrow=classic;html=1;rounded=0;exitX=0.5;exitY=1;exitDx=0;exitDy=0;entryX=0.642;entryY=1.03;entryDx=0;entryDy=0;entryPerimeter=0;" parent="1" source="WtRjEL5a1TLRnZF8yTDm-133" target="WtRjEL5a1TLRnZF8yTDm-79" edge="1">
          <mxGeometry width="50" height="50" relative="1" as="geometry">
            <mxPoint x="1278" y="830" as="sourcePoint" />
            <mxPoint x="1428" y="690" as="targetPoint" />
            <Array as="points">
              <mxPoint x="1268" y="800" />
              <mxPoint x="1618" y="800" />
            </Array>
          </mxGeometry>
        </mxCell>
        <mxCell id="WtRjEL5a1TLRnZF8yTDm-135" value="manage order status" style="edgeLabel;html=1;align=center;verticalAlign=middle;resizable=0;points=[];" parent="WtRjEL5a1TLRnZF8yTDm-134" vertex="1" connectable="0">
          <mxGeometry x="-0.5168" relative="1" as="geometry">
            <mxPoint y="-2" as="offset" />
          </mxGeometry>
        </mxCell>
        <mxCell id="WtRjEL5a1TLRnZF8yTDm-137" value="" style="endArrow=classic;html=1;rounded=0;exitX=1;exitY=0.5;exitDx=0;exitDy=0;entryX=0;entryY=0.5;entryDx=0;entryDy=0;edgeStyle=orthogonalEdgeStyle;" parent="1" source="WtRjEL5a1TLRnZF8yTDm-117" target="WtRjEL5a1TLRnZF8yTDm-110" edge="1">
          <mxGeometry width="50" height="50" relative="1" as="geometry">
            <mxPoint x="1448" y="1030" as="sourcePoint" />
            <mxPoint x="1498" y="980" as="targetPoint" />
          </mxGeometry>
        </mxCell>
        <mxCell id="WtRjEL5a1TLRnZF8yTDm-138" value="sending update request" style="edgeLabel;html=1;align=center;verticalAlign=middle;resizable=0;points=[];" parent="WtRjEL5a1TLRnZF8yTDm-137" vertex="1" connectable="0">
          <mxGeometry x="-0.2078" y="-2" relative="1" as="geometry">
            <mxPoint x="10" y="-3" as="offset" />
          </mxGeometry>
        </mxCell>
        <mxCell id="WtRjEL5a1TLRnZF8yTDm-139" value="" style="endArrow=classic;html=1;rounded=0;exitX=0;exitY=0;exitDx=0;exitDy=0;entryX=0.705;entryY=0.044;entryDx=0;entryDy=0;entryPerimeter=0;edgeStyle=orthogonalEdgeStyle;" parent="1" source="WtRjEL5a1TLRnZF8yTDm-124" target="WtRjEL5a1TLRnZF8yTDm-110" edge="1">
          <mxGeometry width="50" height="50" relative="1" as="geometry">
            <mxPoint x="1618" y="1060" as="sourcePoint" />
            <mxPoint x="1668" y="1010" as="targetPoint" />
            <Array as="points">
              <mxPoint x="1850" y="970" />
              <mxPoint x="1587" y="970" />
            </Array>
          </mxGeometry>
        </mxCell>
        <mxCell id="WtRjEL5a1TLRnZF8yTDm-140" value="Retrieves product details" style="edgeLabel;html=1;align=center;verticalAlign=middle;resizable=0;points=[];" parent="WtRjEL5a1TLRnZF8yTDm-139" vertex="1" connectable="0">
          <mxGeometry x="0.2036" y="-1" relative="1" as="geometry">
            <mxPoint as="offset" />
          </mxGeometry>
        </mxCell>
        <mxCell id="WtRjEL5a1TLRnZF8yTDm-141" value="" style="endArrow=classic;html=1;rounded=0;exitX=0.5;exitY=1;exitDx=0;exitDy=0;entryX=0;entryY=0.5;entryDx=0;entryDy=0;edgeStyle=orthogonalEdgeStyle;" parent="1" source="WtRjEL5a1TLRnZF8yTDm-117" target="WtRjEL5a1TLRnZF8yTDm-113" edge="1">
          <mxGeometry width="50" height="50" relative="1" as="geometry">
            <mxPoint x="1448" y="1060" as="sourcePoint" />
            <mxPoint x="1498" y="1010" as="targetPoint" />
          </mxGeometry>
        </mxCell>
        <mxCell id="WtRjEL5a1TLRnZF8yTDm-142" value="request to remove" style="edgeLabel;html=1;align=center;verticalAlign=middle;resizable=0;points=[];" parent="WtRjEL5a1TLRnZF8yTDm-141" vertex="1" connectable="0">
          <mxGeometry x="-0.6855" y="-2" relative="1" as="geometry">
            <mxPoint as="offset" />
          </mxGeometry>
        </mxCell>
        <mxCell id="WtRjEL5a1TLRnZF8yTDm-146" value="4.1" style="swimlane;html=1;fontStyle=0;childLayout=stackLayout;horizontal=1;startSize=26;fillColor=#e0e0e0;horizontalStack=0;resizeParent=1;resizeLast=0;collapsible=1;marginBottom=0;swimlaneFillColor=#ffffff;align=center;rounded=1;shadow=0;comic=0;labelBackgroundColor=none;strokeWidth=1;fontFamily=Verdana;fontSize=12" parent="1" vertex="1">
          <mxGeometry x="2660" y="120" width="160" height="52" as="geometry" />
        </mxCell>
        <mxCell id="WtRjEL5a1TLRnZF8yTDm-147" value="Verify payment information" style="text;html=1;strokeColor=none;fillColor=none;spacingLeft=4;spacingRight=4;whiteSpace=wrap;overflow=hidden;rotatable=0;points=[[0,0.5],[1,0.5]];portConstraint=eastwest;align=center;" parent="WtRjEL5a1TLRnZF8yTDm-146" vertex="1">
          <mxGeometry y="26" width="160" height="26" as="geometry" />
        </mxCell>
        <mxCell id="WtRjEL5a1TLRnZF8yTDm-148" value="D4" style="html=1;dashed=0;whiteSpace=wrap;shape=mxgraph.dfd.dataStoreID;align=left;spacingLeft=3;points=[[0,0],[0.5,0],[1,0],[0,0.5],[1,0.5],[0,1],[0.5,1],[1,1]];" parent="1" vertex="1">
          <mxGeometry x="3000" y="240" width="100" height="30" as="geometry" />
        </mxCell>
        <mxCell id="WtRjEL5a1TLRnZF8yTDm-149" value="Order&lt;div&gt;History&lt;/div&gt;" style="text;html=1;align=center;verticalAlign=middle;whiteSpace=wrap;rounded=0;" parent="1" vertex="1">
          <mxGeometry x="3030" y="240" width="60" height="30" as="geometry" />
        </mxCell>
        <mxCell id="WtRjEL5a1TLRnZF8yTDm-152" value="4.2" style="swimlane;html=1;fontStyle=0;childLayout=stackLayout;horizontal=1;startSize=26;fillColor=#e0e0e0;horizontalStack=0;resizeParent=1;resizeLast=0;collapsible=1;marginBottom=0;swimlaneFillColor=#ffffff;align=center;rounded=1;shadow=0;comic=0;labelBackgroundColor=none;strokeWidth=1;fontFamily=Verdana;fontSize=12" parent="1" vertex="1">
          <mxGeometry x="2770" y="240" width="140" height="52" as="geometry" />
        </mxCell>
        <mxCell id="WtRjEL5a1TLRnZF8yTDm-153" value="Confirm Payment" style="text;html=1;strokeColor=none;fillColor=none;spacingLeft=4;spacingRight=4;whiteSpace=wrap;overflow=hidden;rotatable=0;points=[[0,0.5],[1,0.5]];portConstraint=eastwest;align=center;" parent="WtRjEL5a1TLRnZF8yTDm-152" vertex="1">
          <mxGeometry y="26" width="140" height="26" as="geometry" />
        </mxCell>
        <mxCell id="WtRjEL5a1TLRnZF8yTDm-154" value="4.3" style="swimlane;html=1;fontStyle=0;childLayout=stackLayout;horizontal=1;startSize=26;fillColor=#e0e0e0;horizontalStack=0;resizeParent=1;resizeLast=0;collapsible=1;marginBottom=0;swimlaneFillColor=#ffffff;align=center;rounded=1;shadow=0;comic=0;labelBackgroundColor=none;strokeWidth=1;fontFamily=Verdana;fontSize=12" parent="1" vertex="1">
          <mxGeometry x="2670" y="373" width="140" height="52" as="geometry" />
        </mxCell>
        <mxCell id="WtRjEL5a1TLRnZF8yTDm-155" value="Update Payment Status" style="text;html=1;strokeColor=none;fillColor=none;spacingLeft=4;spacingRight=4;whiteSpace=wrap;overflow=hidden;rotatable=0;points=[[0,0.5],[1,0.5]];portConstraint=eastwest;align=center;" parent="WtRjEL5a1TLRnZF8yTDm-154" vertex="1">
          <mxGeometry y="26" width="140" height="26" as="geometry" />
        </mxCell>
        <mxCell id="WtRjEL5a1TLRnZF8yTDm-156" value="User" style="whiteSpace=wrap;html=1;rounded=0;shadow=0;comic=0;labelBackgroundColor=none;strokeWidth=1;fontFamily=Verdana;fontSize=12;align=center;" parent="1" vertex="1">
          <mxGeometry x="2460" y="178" width="120" height="50" as="geometry" />
        </mxCell>
        <mxCell id="WtRjEL5a1TLRnZF8yTDm-157" value="" style="endArrow=classic;html=1;rounded=0;exitX=0.5;exitY=0;exitDx=0;exitDy=0;entryX=0;entryY=0.5;entryDx=0;entryDy=0;edgeStyle=orthogonalEdgeStyle;" parent="1" source="WtRjEL5a1TLRnZF8yTDm-156" target="WtRjEL5a1TLRnZF8yTDm-146" edge="1">
          <mxGeometry width="50" height="50" relative="1" as="geometry">
            <mxPoint x="2440" y="450" as="sourcePoint" />
            <mxPoint x="2490" y="400" as="targetPoint" />
          </mxGeometry>
        </mxCell>
        <mxCell id="WtRjEL5a1TLRnZF8yTDm-158" value="payment details" style="edgeLabel;html=1;align=center;verticalAlign=middle;resizable=0;points=[];" parent="WtRjEL5a1TLRnZF8yTDm-157" vertex="1" connectable="0">
          <mxGeometry x="0.0863" relative="1" as="geometry">
            <mxPoint x="-3" as="offset" />
          </mxGeometry>
        </mxCell>
        <mxCell id="WtRjEL5a1TLRnZF8yTDm-160" value="Payment Gateway" style="whiteSpace=wrap;html=1;rounded=0;shadow=0;comic=0;labelBackgroundColor=none;strokeWidth=1;fontFamily=Verdana;fontSize=12;align=center;" parent="1" vertex="1">
          <mxGeometry x="2410" y="369" width="120" height="50" as="geometry" />
        </mxCell>
        <mxCell id="WtRjEL5a1TLRnZF8yTDm-161" value="" style="endArrow=classic;html=1;rounded=0;exitX=0.25;exitY=0;exitDx=0;exitDy=0;entryX=0.25;entryY=0;entryDx=0;entryDy=0;edgeStyle=orthogonalEdgeStyle;" parent="1" source="WtRjEL5a1TLRnZF8yTDm-146" target="WtRjEL5a1TLRnZF8yTDm-160" edge="1">
          <mxGeometry width="50" height="50" relative="1" as="geometry">
            <mxPoint x="2470" y="420" as="sourcePoint" />
            <mxPoint x="2480" y="360" as="targetPoint" />
            <Array as="points">
              <mxPoint x="2700" y="90" />
              <mxPoint x="2440" y="90" />
            </Array>
          </mxGeometry>
        </mxCell>
        <mxCell id="WtRjEL5a1TLRnZF8yTDm-162" value="Submit for confirm" style="edgeLabel;html=1;align=center;verticalAlign=middle;resizable=0;points=[];" parent="WtRjEL5a1TLRnZF8yTDm-161" vertex="1" connectable="0">
          <mxGeometry x="-0.2322" relative="1" as="geometry">
            <mxPoint x="33" as="offset" />
          </mxGeometry>
        </mxCell>
        <mxCell id="WtRjEL5a1TLRnZF8yTDm-164" value="" style="endArrow=classic;html=1;rounded=0;exitX=1;exitY=0;exitDx=0;exitDy=0;entryX=0;entryY=0.5;entryDx=0;entryDy=0;" parent="1" source="WtRjEL5a1TLRnZF8yTDm-160" target="WtRjEL5a1TLRnZF8yTDm-153" edge="1">
          <mxGeometry width="50" height="50" relative="1" as="geometry">
            <mxPoint x="2660" y="360" as="sourcePoint" />
            <mxPoint x="2710" y="310" as="targetPoint" />
            <Array as="points">
              <mxPoint x="2530" y="280" />
            </Array>
          </mxGeometry>
        </mxCell>
        <mxCell id="WtRjEL5a1TLRnZF8yTDm-166" value="confirms payment status" style="edgeLabel;html=1;align=center;verticalAlign=middle;resizable=0;points=[];" parent="WtRjEL5a1TLRnZF8yTDm-164" vertex="1" connectable="0">
          <mxGeometry x="-0.1224" y="1" relative="1" as="geometry">
            <mxPoint x="34" as="offset" />
          </mxGeometry>
        </mxCell>
        <mxCell id="WtRjEL5a1TLRnZF8yTDm-167" value="" style="endArrow=classic;html=1;rounded=0;exitX=1;exitY=0.5;exitDx=0;exitDy=0;entryX=0.25;entryY=1;entryDx=0;entryDy=0;edgeStyle=orthogonalEdgeStyle;" parent="1" source="WtRjEL5a1TLRnZF8yTDm-154" target="WtRjEL5a1TLRnZF8yTDm-149" edge="1">
          <mxGeometry width="50" height="50" relative="1" as="geometry">
            <mxPoint x="2860" y="300" as="sourcePoint" />
            <mxPoint x="2910" y="250" as="targetPoint" />
          </mxGeometry>
        </mxCell>
        <mxCell id="WtRjEL5a1TLRnZF8yTDm-168" value="Save payment info" style="edgeLabel;html=1;align=center;verticalAlign=middle;resizable=0;points=[];" parent="WtRjEL5a1TLRnZF8yTDm-167" vertex="1" connectable="0">
          <mxGeometry x="-0.4512" y="-2" relative="1" as="geometry">
            <mxPoint as="offset" />
          </mxGeometry>
        </mxCell>
        <mxCell id="WtRjEL5a1TLRnZF8yTDm-169" value="" style="endArrow=classic;html=1;rounded=0;entryX=1;entryY=0.5;entryDx=0;entryDy=0;exitX=0.75;exitY=0;exitDx=0;exitDy=0;edgeStyle=orthogonalEdgeStyle;" parent="1" source="WtRjEL5a1TLRnZF8yTDm-154" target="WtRjEL5a1TLRnZF8yTDm-156" edge="1">
          <mxGeometry width="50" height="50" relative="1" as="geometry">
            <mxPoint x="2760" y="360" as="sourcePoint" />
            <mxPoint x="2780" y="210" as="targetPoint" />
            <Array as="points">
              <mxPoint x="2950" y="373" />
              <mxPoint x="2950" y="220" />
              <mxPoint x="2610" y="220" />
              <mxPoint x="2610" y="203" />
            </Array>
          </mxGeometry>
        </mxCell>
        <mxCell id="WtRjEL5a1TLRnZF8yTDm-170" value="payment confirmation." style="edgeLabel;html=1;align=center;verticalAlign=middle;resizable=0;points=[];" parent="WtRjEL5a1TLRnZF8yTDm-169" vertex="1" connectable="0">
          <mxGeometry x="0.4925" relative="1" as="geometry">
            <mxPoint y="-2" as="offset" />
          </mxGeometry>
        </mxCell>
        <mxCell id="WtRjEL5a1TLRnZF8yTDm-171" value="" style="endArrow=classic;html=1;rounded=0;exitX=-0.002;exitY=0.35;exitDx=0;exitDy=0;exitPerimeter=0;entryX=0.75;entryY=0;entryDx=0;entryDy=0;" parent="1" source="WtRjEL5a1TLRnZF8yTDm-152" target="WtRjEL5a1TLRnZF8yTDm-160" edge="1">
          <mxGeometry width="50" height="50" relative="1" as="geometry">
            <mxPoint x="2700" y="270" as="sourcePoint" />
            <mxPoint x="2520" y="360" as="targetPoint" />
            <Array as="points">
              <mxPoint x="2500" y="260" />
            </Array>
          </mxGeometry>
        </mxCell>
        <mxCell id="WtRjEL5a1TLRnZF8yTDm-172" value=" confirmation received" style="edgeLabel;html=1;align=center;verticalAlign=middle;resizable=0;points=[];" parent="WtRjEL5a1TLRnZF8yTDm-171" vertex="1" connectable="0">
          <mxGeometry x="-0.1181" relative="1" as="geometry">
            <mxPoint as="offset" />
          </mxGeometry>
        </mxCell>
        <mxCell id="WtRjEL5a1TLRnZF8yTDm-173" value="5.1" style="swimlane;html=1;fontStyle=0;childLayout=stackLayout;horizontal=1;startSize=26;fillColor=#e0e0e0;horizontalStack=0;resizeParent=1;resizeLast=0;collapsible=1;marginBottom=0;swimlaneFillColor=#ffffff;align=center;rounded=1;shadow=0;comic=0;labelBackgroundColor=none;strokeWidth=1;fontFamily=Verdana;fontSize=12" parent="1" vertex="1">
          <mxGeometry x="2631" y="549" width="140" height="52" as="geometry" />
        </mxCell>
        <mxCell id="WtRjEL5a1TLRnZF8yTDm-174" value="Update Stock" style="text;html=1;strokeColor=none;fillColor=none;spacingLeft=4;spacingRight=4;whiteSpace=wrap;overflow=hidden;rotatable=0;points=[[0,0.5],[1,0.5]];portConstraint=eastwest;align=center;" parent="WtRjEL5a1TLRnZF8yTDm-173" vertex="1">
          <mxGeometry y="26" width="140" height="26" as="geometry" />
        </mxCell>
        <mxCell id="WtRjEL5a1TLRnZF8yTDm-175" value="5.2" style="swimlane;html=1;fontStyle=0;childLayout=stackLayout;horizontal=1;startSize=26;fillColor=#e0e0e0;horizontalStack=0;resizeParent=1;resizeLast=0;collapsible=1;marginBottom=0;swimlaneFillColor=#ffffff;align=center;rounded=1;shadow=0;comic=0;labelBackgroundColor=none;strokeWidth=1;fontFamily=Verdana;fontSize=12" parent="1" vertex="1">
          <mxGeometry x="2665" y="659" width="140" height="52" as="geometry" />
        </mxCell>
        <mxCell id="WtRjEL5a1TLRnZF8yTDm-176" value="Check Stock Level" style="text;html=1;strokeColor=none;fillColor=none;spacingLeft=4;spacingRight=4;whiteSpace=wrap;overflow=hidden;rotatable=0;points=[[0,0.5],[1,0.5]];portConstraint=eastwest;align=center;" parent="WtRjEL5a1TLRnZF8yTDm-175" vertex="1">
          <mxGeometry y="26" width="140" height="26" as="geometry" />
        </mxCell>
        <mxCell id="WtRjEL5a1TLRnZF8yTDm-177" value="5.3" style="swimlane;html=1;fontStyle=0;childLayout=stackLayout;horizontal=1;startSize=26;fillColor=#e0e0e0;horizontalStack=0;resizeParent=1;resizeLast=0;collapsible=1;marginBottom=0;swimlaneFillColor=#ffffff;align=center;rounded=1;shadow=0;comic=0;labelBackgroundColor=none;strokeWidth=1;fontFamily=Verdana;fontSize=12" parent="1" vertex="1">
          <mxGeometry x="2591" y="750" width="140" height="52" as="geometry" />
        </mxCell>
        <mxCell id="WtRjEL5a1TLRnZF8yTDm-178" value="Reorder Stock" style="text;html=1;strokeColor=none;fillColor=none;spacingLeft=4;spacingRight=4;whiteSpace=wrap;overflow=hidden;rotatable=0;points=[[0,0.5],[1,0.5]];portConstraint=eastwest;align=center;" parent="WtRjEL5a1TLRnZF8yTDm-177" vertex="1">
          <mxGeometry y="26" width="140" height="26" as="geometry" />
        </mxCell>
        <mxCell id="WtRjEL5a1TLRnZF8yTDm-179" value="D5" style="html=1;dashed=0;whiteSpace=wrap;shape=mxgraph.dfd.dataStoreID;align=left;spacingLeft=3;points=[[0,0],[0.5,0],[1,0],[0,0.5],[1,0.5],[0,1],[0.5,1],[1,1]];" parent="1" vertex="1">
          <mxGeometry x="2920" y="670" width="100" height="30" as="geometry" />
        </mxCell>
        <mxCell id="WtRjEL5a1TLRnZF8yTDm-180" value="Inverntory" style="text;html=1;align=center;verticalAlign=middle;whiteSpace=wrap;rounded=0;" parent="1" vertex="1">
          <mxGeometry x="2950" y="670" width="60" height="30" as="geometry" />
        </mxCell>
        <mxCell id="WtRjEL5a1TLRnZF8yTDm-181" value="Admin" style="whiteSpace=wrap;html=1;rounded=0;shadow=0;comic=0;labelBackgroundColor=none;strokeWidth=1;fontFamily=Verdana;fontSize=12;align=center;" parent="1" vertex="1">
          <mxGeometry x="2408" y="659" width="120" height="50" as="geometry" />
        </mxCell>
        <mxCell id="WtRjEL5a1TLRnZF8yTDm-182" value="" style="endArrow=classic;html=1;rounded=0;exitX=1;exitY=0.5;exitDx=0;exitDy=0;entryX=0.25;entryY=0;entryDx=0;entryDy=0;edgeStyle=orthogonalEdgeStyle;" parent="1" source="WtRjEL5a1TLRnZF8yTDm-173" target="WtRjEL5a1TLRnZF8yTDm-180" edge="1">
          <mxGeometry width="50" height="50" relative="1" as="geometry">
            <mxPoint x="2630" y="650" as="sourcePoint" />
            <mxPoint x="2680" y="600" as="targetPoint" />
          </mxGeometry>
        </mxCell>
        <mxCell id="WtRjEL5a1TLRnZF8yTDm-183" value="updates inventory levels" style="edgeLabel;html=1;align=center;verticalAlign=middle;resizable=0;points=[];" parent="WtRjEL5a1TLRnZF8yTDm-182" vertex="1" connectable="0">
          <mxGeometry x="-0.5273" y="-1" relative="1" as="geometry">
            <mxPoint x="12" y="-2" as="offset" />
          </mxGeometry>
        </mxCell>
        <mxCell id="WtRjEL5a1TLRnZF8yTDm-184" value="" style="endArrow=classic;html=1;rounded=0;exitX=1;exitY=0.5;exitDx=0;exitDy=0;entryX=0;entryY=0.5;entryDx=0;entryDy=0;" parent="1" source="WtRjEL5a1TLRnZF8yTDm-175" target="WtRjEL5a1TLRnZF8yTDm-179" edge="1">
          <mxGeometry width="50" height="50" relative="1" as="geometry">
            <mxPoint x="2630" y="650" as="sourcePoint" />
            <mxPoint x="2680" y="600" as="targetPoint" />
          </mxGeometry>
        </mxCell>
        <mxCell id="WtRjEL5a1TLRnZF8yTDm-185" value="retrieves stock leve" style="edgeLabel;html=1;align=center;verticalAlign=middle;resizable=0;points=[];" parent="WtRjEL5a1TLRnZF8yTDm-184" vertex="1" connectable="0">
          <mxGeometry x="-0.4855" y="-1" relative="1" as="geometry">
            <mxPoint x="24" as="offset" />
          </mxGeometry>
        </mxCell>
        <mxCell id="WtRjEL5a1TLRnZF8yTDm-186" value="" style="endArrow=classic;html=1;rounded=0;exitX=0;exitY=0.5;exitDx=0;exitDy=0;entryX=0.75;entryY=1;entryDx=0;entryDy=0;edgeStyle=orthogonalEdgeStyle;" parent="1" source="WtRjEL5a1TLRnZF8yTDm-177" target="WtRjEL5a1TLRnZF8yTDm-181" edge="1">
          <mxGeometry width="50" height="50" relative="1" as="geometry">
            <mxPoint x="2640" y="680" as="sourcePoint" />
            <mxPoint x="2690" y="630" as="targetPoint" />
          </mxGeometry>
        </mxCell>
        <mxCell id="WtRjEL5a1TLRnZF8yTDm-187" value="Low stock alert" style="edgeLabel;html=1;align=center;verticalAlign=middle;resizable=0;points=[];" parent="WtRjEL5a1TLRnZF8yTDm-186" vertex="1" connectable="0">
          <mxGeometry x="-0.2264" y="-2" relative="1" as="geometry">
            <mxPoint x="14" as="offset" />
          </mxGeometry>
        </mxCell>
        <mxCell id="WtRjEL5a1TLRnZF8yTDm-188" value="" style="endArrow=classic;html=1;rounded=0;exitX=0;exitY=0.5;exitDx=0;exitDy=0;entryX=1;entryY=0.5;entryDx=0;entryDy=0;" parent="1" source="WtRjEL5a1TLRnZF8yTDm-175" target="WtRjEL5a1TLRnZF8yTDm-181" edge="1">
          <mxGeometry width="50" height="50" relative="1" as="geometry">
            <mxPoint x="2740" y="690" as="sourcePoint" />
            <mxPoint x="2790" y="640" as="targetPoint" />
          </mxGeometry>
        </mxCell>
        <mxCell id="WtRjEL5a1TLRnZF8yTDm-189" value="&lt;em&gt;Notifies of stock levels&lt;/em&gt;" style="edgeLabel;html=1;align=center;verticalAlign=middle;resizable=0;points=[];" parent="WtRjEL5a1TLRnZF8yTDm-188" vertex="1" connectable="0">
          <mxGeometry x="0.158" y="-1" relative="1" as="geometry">
            <mxPoint x="13" as="offset" />
          </mxGeometry>
        </mxCell>
        <mxCell id="WtRjEL5a1TLRnZF8yTDm-190" value="" style="endArrow=classic;html=1;rounded=0;exitX=0.75;exitY=0;exitDx=0;exitDy=0;entryX=0;entryY=0.25;entryDx=0;entryDy=0;edgeStyle=orthogonalEdgeStyle;" parent="1" source="WtRjEL5a1TLRnZF8yTDm-181" target="WtRjEL5a1TLRnZF8yTDm-173" edge="1">
          <mxGeometry width="50" height="50" relative="1" as="geometry">
            <mxPoint x="2790" y="690" as="sourcePoint" />
            <mxPoint x="2840" y="640" as="targetPoint" />
          </mxGeometry>
        </mxCell>
        <mxCell id="WtRjEL5a1TLRnZF8yTDm-191" value="Adjust stock as needed" style="edgeLabel;html=1;align=center;verticalAlign=middle;resizable=0;points=[];" parent="WtRjEL5a1TLRnZF8yTDm-190" vertex="1" connectable="0">
          <mxGeometry x="0.1917" relative="1" as="geometry">
            <mxPoint x="-38" y="39" as="offset" />
          </mxGeometry>
        </mxCell>
        <mxCell id="WtRjEL5a1TLRnZF8yTDm-193" value="" style="endArrow=classic;html=1;rounded=0;exitX=0;exitY=0.5;exitDx=0;exitDy=0;entryX=1;entryY=0.25;entryDx=0;entryDy=0;edgeStyle=orthogonalEdgeStyle;" parent="1" source="WtRjEL5a1TLRnZF8yTDm-174" target="WtRjEL5a1TLRnZF8yTDm-181" edge="1">
          <mxGeometry width="50" height="50" relative="1" as="geometry">
            <mxPoint x="2790" y="690" as="sourcePoint" />
            <mxPoint x="2840" y="640" as="targetPoint" />
          </mxGeometry>
        </mxCell>
        <mxCell id="WtRjEL5a1TLRnZF8yTDm-194" value="Inform of new stock levels" style="edgeLabel;html=1;align=center;verticalAlign=middle;resizable=0;points=[];" parent="WtRjEL5a1TLRnZF8yTDm-193" vertex="1" connectable="0">
          <mxGeometry x="-0.5516" y="-1" relative="1" as="geometry">
            <mxPoint y="61" as="offset" />
          </mxGeometry>
        </mxCell>
        <mxCell id="WtRjEL5a1TLRnZF8yTDm-195" value="" style="endArrow=classic;html=1;rounded=0;exitX=1;exitY=0.5;exitDx=0;exitDy=0;entryX=0.25;entryY=1;entryDx=0;entryDy=0;edgeStyle=orthogonalEdgeStyle;" parent="1" source="WtRjEL5a1TLRnZF8yTDm-177" target="WtRjEL5a1TLRnZF8yTDm-180" edge="1">
          <mxGeometry width="50" height="50" relative="1" as="geometry">
            <mxPoint x="2790" y="690" as="sourcePoint" />
            <mxPoint x="2840" y="640" as="targetPoint" />
          </mxGeometry>
        </mxCell>
        <mxCell id="WtRjEL5a1TLRnZF8yTDm-196" value="&lt;em&gt;Updates inventory records&lt;/em&gt;" style="edgeLabel;html=1;align=center;verticalAlign=middle;resizable=0;points=[];" parent="WtRjEL5a1TLRnZF8yTDm-195" vertex="1" connectable="0">
          <mxGeometry x="-0.6194" y="1" relative="1" as="geometry">
            <mxPoint x="40" as="offset" />
          </mxGeometry>
        </mxCell>
        <mxCell id="WtRjEL5a1TLRnZF8yTDm-197" value="" style="endArrow=classic;html=1;rounded=0;exitX=1;exitY=0.5;exitDx=0;exitDy=0;entryX=0.25;entryY=0;entryDx=0;entryDy=0;edgeStyle=orthogonalEdgeStyle;" parent="1" source="WtRjEL5a1TLRnZF8yTDm-146" target="WtRjEL5a1TLRnZF8yTDm-149" edge="1">
          <mxGeometry width="50" height="50" relative="1" as="geometry">
            <mxPoint x="3070" y="490" as="sourcePoint" />
            <mxPoint x="3120" y="440" as="targetPoint" />
          </mxGeometry>
        </mxCell>
        <mxCell id="WtRjEL5a1TLRnZF8yTDm-198" value="Document initial payment" style="edgeLabel;html=1;align=center;verticalAlign=middle;resizable=0;points=[];" parent="WtRjEL5a1TLRnZF8yTDm-197" vertex="1" connectable="0">
          <mxGeometry x="-0.3355" y="-1" relative="1" as="geometry">
            <mxPoint as="offset" />
          </mxGeometry>
        </mxCell>
        <mxCell id="WtRjEL5a1TLRnZF8yTDm-199" value="" style="endArrow=classic;html=1;rounded=0;exitX=0;exitY=0.5;exitDx=0;exitDy=0;entryX=0.968;entryY=0.644;entryDx=0;entryDy=0;entryPerimeter=0;" parent="1" source="WtRjEL5a1TLRnZF8yTDm-154" target="WtRjEL5a1TLRnZF8yTDm-160" edge="1">
          <mxGeometry width="50" height="50" relative="1" as="geometry">
            <mxPoint x="2600" y="410" as="sourcePoint" />
            <mxPoint x="2650" y="360" as="targetPoint" />
          </mxGeometry>
        </mxCell>
        <mxCell id="WtRjEL5a1TLRnZF8yTDm-200" value="Validate final payment" style="edgeLabel;html=1;align=center;verticalAlign=middle;resizable=0;points=[];" parent="WtRjEL5a1TLRnZF8yTDm-199" vertex="1" connectable="0">
          <mxGeometry x="0.57" relative="1" as="geometry">
            <mxPoint x="43" as="offset" />
          </mxGeometry>
        </mxCell>
      </root>
    </mxGraphModel>
  </diagram>
</mxfile>
